 <svg width="50" height="50" viewBox="0 0 50 50" fill="none" xmlns="http://www.w3.org/2000/svg">
      <circle cx="25" cy="25" r="24.5" fill="white" stroke="#11BF6A"></circle>
      <path d="M26.414 24.9999L30.657 29.2429C30.7525 29.3351 30.8287 29.4455 30.8811 29.5675C30.9335
      29.6895 30.9611 29.8207 30.9622 29.9535C30.9634 30.0863 30.9381 30.2179 30.8878 30.3408C30.8375 
      30.4637 30.7633 30.5754 30.6694 30.6693C30.5755 30.7632 30.4638 30.8374 30.3409 30.8877C30.218 
      30.938 30.0863 30.9633 29.9536 30.9621C29.8208 30.961 29.6896 30.9334 29.5676 30.881C29.4456
        30.8286 29.3352 30.7524 29.243 30.6569L25 26.4139L20.757 30.6569C20.5684 30.839 20.3158 
        30.9398 20.0536 30.9376C19.7914 30.9353 19.5406 30.8301 19.3551 30.6447C19.1697 30.4593 19.0646 
        30.2085 19.0623 29.9463C19.06 29.6841 19.1608 29.4315 19.343 29.2429L23.586 24.9999L19.343 
        20.7569C19.1608 20.5683 19.06 20.3157 19.0623 20.0535C19.0646 19.7913 19.1697 19.5405 19.3551 
        19.3551C19.5406 19.1697 19.7914 19.0645 20.0536 19.0622C20.3158 19.0599 20.5684 19.1607 20.757
        19.3429L25 23.5859L29.243 19.3429C29.3352 19.2474 29.4456 19.1712 29.5676 19.1188C29.6896 
        19.0664 29.8208 19.0388 29.9536 19.0376C30.0863 19.0365 30.218 19.0618 30.3409 19.1121C30.4638 
        19.1623 30.5755 19.2366 30.6694 19.3305C30.7633 19.4244 30.8375 19.536 30.8878 19.6589C30.9381 
        19.7818 30.9634 19.9135 30.9622 20.0463C30.9611 20.1791 30.9335 20.3103 30.8811 20.4323C30.8287 
        20.5543 30.7525 20.6646 30.657 20.7569L26.414 24.9999Z" fill="#11BF6A"></path>
      </svg>