<?xml version="1.0" encoding="UTF-8"?>
<svg xmlns="http://www.w3.org/2000/svg" xmlns:xlink="http://www.w3.org/1999/xlink" width="26px" height="26px" viewBox="0 0 26 26" version="1.1">
<g id="surface1">
<path style=" stroke:none;fill-rule:nonzero;fill:rgb(0%,0%,0%);fill-opacity:1;" d="M 5.28125 2.4375 C 3.714844 2.4375 2.4375 3.714844 2.4375 5.28125 L 2.4375 20.71875 C 2.4375 22.285156 3.714844 23.5625 5.28125 23.5625 L 20.71875 23.5625 C 22.285156 23.5625 23.5625 22.285156 23.5625 20.71875 L 23.5625 5.28125 C 23.5625 3.714844 22.285156 2.4375 20.71875 2.4375 Z M 5.28125 3.25 L 20.71875 3.25 C 21.84375 3.25 22.75 4.15625 22.75 5.28125 L 22.75 20.71875 C 22.75 21.84375 21.84375 22.75 20.71875 22.75 L 5.28125 22.75 C 4.15625 22.75 3.25 21.84375 3.25 20.71875 L 3.25 5.28125 C 3.25 4.15625 4.15625 3.25 5.28125 3.25 Z M 8.449219 4.472656 C 8.179688 4.492188 7.910156 4.589844 7.683594 4.777344 C 7.265625 5.128906 6.796875 5.578125 6.566406 6.148438 C 6.074219 7.367188 6.085938 8.679688 6.929688 10.15625 C 6.941406 10.175781 6.957031 10.195312 6.972656 10.214844 C 8.808594 13.980469 11.988281 17.164062 15.75 19.007812 C 15.777344 19.035156 15.808594 19.058594 15.84375 19.078125 C 17.316406 19.925781 18.632812 19.9375 19.851562 19.445312 C 20.421875 19.214844 20.871094 18.746094 21.222656 18.324219 C 21.722656 17.726562 21.597656 16.8125 20.949219 16.375 L 18.214844 14.527344 C 17.742188 14.207031 17.109375 14.238281 16.664062 14.59375 C 16.664062 14.597656 16.664062 14.597656 16.664062 14.597656 L 15.667969 15.402344 C 13.660156 14.125 11.882812 12.347656 10.601562 10.339844 L 11.414062 9.332031 C 11.773438 8.890625 11.800781 8.257812 11.484375 7.785156 L 9.636719 5.050781 C 9.417969 4.726562 9.082031 4.53125 8.722656 4.484375 C 8.632812 4.472656 8.542969 4.46875 8.449219 4.472656 Z M 8.507812 5.277344 C 8.539062 5.277344 8.574219 5.277344 8.609375 5.28125 C 8.75 5.300781 8.878906 5.375 8.964844 5.503906 L 10.808594 8.238281 C 10.933594 8.421875 10.921875 8.652344 10.785156 8.824219 L 9.777344 10.066406 C 9.667969 10.199219 9.65625 10.386719 9.746094 10.53125 C 11.15625 12.832031 13.175781 14.851562 15.476562 16.257812 C 15.621094 16.347656 15.808594 16.335938 15.941406 16.226562 L 17.175781 15.226562 C 17.347656 15.089844 17.578125 15.078125 17.761719 15.203125 L 20.496094 17.046875 C 20.75 17.21875 20.796875 17.566406 20.597656 17.804688 C 20.289062 18.175781 19.875 18.558594 19.546875 18.691406 C 18.519531 19.109375 17.585938 19.117188 16.308594 18.402344 C 16.308594 18.402344 16.304688 18.402344 16.304688 18.402344 C 16.277344 18.378906 16.246094 18.355469 16.214844 18.339844 C 12.546875 16.578125 9.417969 13.449219 7.65625 9.78125 C 7.648438 9.761719 7.636719 9.742188 7.625 9.726562 C 6.886719 8.429688 6.898438 7.488281 7.320312 6.453125 C 7.453125 6.125 7.835938 5.710938 8.207031 5.402344 C 8.296875 5.328125 8.402344 5.285156 8.507812 5.277344 Z M 6.261719 12.027344 C 6.207031 12.035156 6.15625 12.050781 6.109375 12.078125 L 5.410156 12.496094 C 5.21875 12.613281 5.15625 12.863281 5.269531 13.054688 C 5.347656 13.183594 5.480469 13.25 5.621094 13.25 C 5.691406 13.25 5.761719 13.234375 5.828125 13.195312 L 6.523438 12.777344 C 6.71875 12.660156 6.78125 12.414062 6.664062 12.21875 C 6.578125 12.074219 6.417969 12.003906 6.261719 12.027344 Z M 7.527344 13.746094 C 7.425781 13.730469 7.316406 13.753906 7.226562 13.820312 L 6.574219 14.304688 C 6.394531 14.4375 6.359375 14.695312 6.492188 14.875 C 6.570312 14.980469 6.695312 15.035156 6.816406 15.035156 C 6.902344 15.035156 6.988281 15.011719 7.058594 14.957031 L 7.710938 14.472656 C 7.890625 14.335938 7.929688 14.082031 7.796875 13.902344 C 7.726562 13.8125 7.632812 13.757812 7.527344 13.746094 Z M 8.800781 15.339844 C 8.699219 15.335938 8.59375 15.371094 8.511719 15.445312 L 7.910156 15.992188 C 7.742188 16.140625 7.730469 16.398438 7.882812 16.566406 C 7.960938 16.652344 8.070312 16.699219 8.183594 16.699219 C 8.28125 16.699219 8.378906 16.664062 8.453125 16.59375 L 9.054688 16.046875 C 9.222656 15.894531 9.234375 15.636719 9.082031 15.472656 C 9.007812 15.390625 8.90625 15.34375 8.800781 15.339844 Z M 10.230469 16.804688 C 10.125 16.808594 10.023438 16.851562 9.949219 16.9375 L 9.402344 17.535156 C 9.25 17.703125 9.261719 17.960938 9.429688 18.109375 C 9.507812 18.179688 9.605469 18.214844 9.703125 18.214844 C 9.8125 18.214844 9.921875 18.171875 10.003906 18.082031 L 10.550781 17.480469 C 10.699219 17.316406 10.6875 17.058594 10.519531 16.90625 C 10.4375 16.832031 10.332031 16.796875 10.230469 16.804688 Z M 11.789062 18.125 C 11.683594 18.136719 11.585938 18.191406 11.519531 18.28125 L 11.035156 18.933594 C 10.902344 19.113281 10.9375 19.367188 11.117188 19.503906 C 11.191406 19.558594 11.277344 19.582031 11.359375 19.582031 C 11.484375 19.582031 11.605469 19.527344 11.6875 19.417969 L 12.171875 18.769531 C 12.304688 18.585938 12.269531 18.332031 12.089844 18.199219 C 12 18.132812 11.890625 18.109375 11.789062 18.125 Z M 13.621094 19.273438 C 13.464844 19.253906 13.300781 19.324219 13.214844 19.46875 L 12.796875 20.164062 C 12.683594 20.355469 12.746094 20.605469 12.9375 20.722656 C 13.003906 20.761719 13.074219 20.777344 13.148438 20.777344 C 13.285156 20.777344 13.421875 20.710938 13.496094 20.582031 L 13.914062 19.882812 C 14.027344 19.691406 13.964844 19.441406 13.773438 19.328125 C 13.726562 19.296875 13.671875 19.28125 13.621094 19.273438 Z M 13.621094 19.273438 "/>
</g>
</svg>
