<svg xmlns="http://www.w3.org/2000/svg" width="20" height="20" viewBox="-2 -2 20 20" id="life" y="871"><title>Icons/16x16/life</title><path d="M9.27 1C10.92 2.552 12 5.115 12 8.014c0 2.882-1.066 5.432-2.702 6.986l-1.142-.798c1.107-1.56 1.796-3.756 1.796-6.188 0-2.45-.698-4.659-1.819-6.22L9.27 1zM6.357 9.527c.75 0 1.357.56 1.357 1.25s-.607 1.25-1.357 1.25S5 11.466 5 10.776s.608-1.25 1.357-1.25zm0-5.526c.75 0 1.357.56 1.357 1.25S7.107 6.5 6.357 6.5 5 5.94 5 5.25 5.608 4 6.357 4z" fill="#002395" fill-rule="evenodd"/></svg>