<svg xmlns="http://www.w3.org/2000/svg" width="20" height="20" viewBox="-2 -2 20 20" id="a1" y="0"><g fill="none" transform="translate(1 1)"><path fill="#DA291C" d="M5.552 2l2.268.45c.058.029.087.057.087.085l3.071 10.141c.03.028.03.056 0 .085-.028.028-.057.056-.086.056l-1.32.169-.575.084H8.97l-.948-.169c-.057-.028-.086-.056-.086-.084l-.344-1.409.775-.028.43 1.38c0 .057.087.113.144.113h.057c.087-.028.144-.112.115-.197l-.459-1.493a.194.194 0 0 0-.172-.113l-2.355.113-1.378.056-.66 2.338c0 .057-.057.085-.086.085L1.303 14h-.057l-1.177-.535c-.058-.028-.086-.085-.058-.141l3.905-10.62c0-.028.029-.056.057-.056l1.235-.592L1.303 13.55c-.028.085.029.17.115.197h.057c.058 0 .115-.056.144-.112L5.552 2zm1.005 2.592c-.029 0-.115.056-.143.112L5.007 9.07c0 .057 0 .113.029.141.057.028.086.057.143.057h2.728a.222.222 0 0 0 .143-.057c.029-.028.057-.084-.029-.14l-1.32-4.367c0-.056-.086-.112-.144-.112zm.058.704l1.09 3.662h-.717L6.27 6.366l.345-1.07z"/><path fill="#000" d="M13.614 0L14 .435v.121l-.025 3.583-.004.573-.026 3.969-.02.013-.422.306-1.82-.174V2.758c-.166.174-.414.377-.69.61-.414.32-.8.551-.993.638V2.44c0-.03.028-.03.055-.058.055-.03.662-.29 1.131-.813.47-.523.552-.668.662-.958.138-.29.138-.407.138-.407s0-.029.028-.029h.027L13.283 0v8.594c0 .116.083.174.165.174.11 0 .166-.087.166-.174V0zM11.35 3.563v.53c-.027.03-.082.03-.11.059-.11.058-.496.232-.496.232l-.58-.058a6.44 6.44 0 0 0 1.049-.668.84.84 0 0 0 .193-.145l-.056.05z"/></g></svg>