<?xml version="1.0" encoding="UTF-8"?>
<!DOCTYPE svg PUBLIC "-//W3C//DTD SVG 1.1//EN" "http://www.w3.org/Graphics/SVG/1.1/DTD/svg11.dtd">
<!-- Creator: CorelDRAW 2020 (64-Bit) -->
<svg xmlns="http://www.w3.org/2000/svg" xml:space="preserve" width="150px" height="106px" version="1.1" style="shape-rendering:geometricPrecision; text-rendering:geometricPrecision; image-rendering:optimizeQuality; fill-rule:evenodd; clip-rule:evenodd"
viewBox="0 0 150 105.71"
 xmlns:xlink="http://www.w3.org/1999/xlink"
 xmlns:xodm="http://www.corel.com/coreldraw/odm/2003">
 <defs>
  <style type="text/css">
   <![CDATA[
    .fil5 {fill:black}
    .fil7 {fill:#005200}
    .fil8 {fill:#99BCB5}
    .fil1 {fill:#C30000}
    .fil6 {fill:yellow}
    .fil3 {fill:black;fill-rule:nonzero}
    .fil2 {fill:#005200;fill-rule:nonzero}
    .fil0 {fill:#C30000;fill-rule:nonzero}
    .fil4 {fill:white;fill-rule:nonzero}
   ]]>
  </style>
 </defs>
 <g id="Слой_x0020_1">
  <metadata id="CorelCorpID_0Corel-Layer"/>
  <g id="_2758359644640">
   <path class="fil0" d="M68.51 55.98c0.64,-0.63 1.66,-0.63 2.3,0 0.63,0.64 0.63,1.66 0,2.29l-13.45 13.45c-0.64,0.64 -1.66,0.64 -2.29,0 -0.16,-0.16 -0.28,-0.34 -0.36,-0.54l-1.16 -2.36 -3.42 13.54 8.9 2.39 -1.62 -4.11c-0.27,-0.68 -0.04,-1.44 0.52,-1.87l23.12 -20.4 -2.37 -5.99c-0.14,-0.33 -0.17,-0.7 -0.07,-1.06 0.23,-0.87 1.11,-1.38 1.98,-1.15l13.54 3.65c0.85,0.22 1.37,1.09 1.16,1.95l-4.89 19.34 0 0c-0.11,0.45 -0.41,0.84 -0.85,1.06 -0.8,0.4 -1.77,0.07 -2.17,-0.73l-2.16 -4.39 -11.85 11.85c-0.63,0.63 -1.66,0.63 -2.29,0 -0.63,-0.63 -0.63,-1.66 0,-2.29l13.45 -13.45c0.63,-0.63 1.66,-0.63 2.29,0 0.16,0.16 0.28,0.34 0.36,0.54l1.16 2.36 3.42 -13.53 -8.91 -2.4 1.63 4.11c0.26,0.69 0.03,1.44 -0.52,1.87l-23.13 20.4 2.37 6c0.14,0.32 0.18,0.69 0.08,1.06 -0.23,0.86 -1.12,1.37 -1.98,1.14l-13.55 -3.64c-0.85,-0.23 -1.37,-1.1 -1.15,-1.96l4.88 -19.34 0.01 0c0.11,-0.44 0.41,-0.84 0.85,-1.06 0.8,-0.39 1.77,-0.06 2.16,0.74l2.16 4.38 11.85 -11.85z"/>
   <path class="fil1" d="M99.41 18.15l32.98 0c7.27,0 13.21,5.95 13.21,13.22l0 0c0,7.27 -5.94,13.22 -13.21,13.22l-32.98 0c-7.27,0 -13.22,-5.95 -13.22,-13.22l0 0c0,-7.27 5.95,-13.22 13.22,-13.22z"/>
   <path class="fil2" d="M6.29 42.68l0 1.21 0.43 0c0.04,0 0.07,0 0.09,-0.02 0.02,-0.02 0.03,-0.05 0.03,-0.1l0 -1c0,-0.06 -0.03,-0.09 -0.08,-0.09l-0.47 0zm0.56 2.06c0,-0.06 -0.01,-0.09 -0.04,-0.11 -0.02,-0.02 -0.06,-0.03 -0.1,-0.03l-0.42 0 0 1.1 0.47 0c0.04,0 0.06,-0.01 0.07,-0.02 0.02,-0.02 0.02,-0.04 0.02,-0.08l0 -0.86zm0.88 -1.04c0,0.12 -0.02,0.22 -0.07,0.3 -0.04,0.08 -0.12,0.14 -0.25,0.18 0.13,0.01 0.22,0.05 0.28,0.13 0.06,0.08 0.09,0.18 0.09,0.28l0 1.2c0,0.26 -0.06,0.45 -0.16,0.56 -0.11,0.11 -0.3,0.16 -0.57,0.16l-1.69 0 0 -4.65 1.82 0c0.18,0 0.32,0.05 0.41,0.15 0.1,0.11 0.14,0.24 0.14,0.42l0 1.27zm1.96 2.81c-0.27,0 -0.46,-0.05 -0.57,-0.16 -0.1,-0.11 -0.16,-0.3 -0.16,-0.56l0 -3.36c0,-0.18 0.06,-0.32 0.16,-0.42 0.11,-0.1 0.24,-0.15 0.39,-0.15l1.39 0 0 0.87 -0.9 0c-0.05,0 -0.08,0.03 -0.08,0.09l0 2.74c0,0.06 0.03,0.09 0.08,0.09l0.9 0 0 0.86 -1.21 0zm2.33 -4.65l1.97 0 0 0.87 -1.01 0 0 1.1 0.77 0 0 0.8 -0.77 0 0 1.02 0.97 0 0 0.86 -1.93 0 0 -4.65zm0.06 -0.67c0,-0.1 0.04,-0.19 0.11,-0.27 0.08,-0.07 0.17,-0.11 0.27,-0.11 0.11,0 0.21,0.04 0.28,0.11 0.08,0.08 0.11,0.17 0.11,0.27 0,0.11 -0.03,0.2 -0.11,0.28 -0.07,0.07 -0.17,0.11 -0.28,0.11 -0.1,0 -0.19,-0.04 -0.27,-0.11 -0.07,-0.08 -0.11,-0.17 -0.11,-0.28zm1.02 0c0,-0.1 0.04,-0.19 0.12,-0.27 0.08,-0.07 0.17,-0.11 0.27,-0.11 0.11,0 0.2,0.04 0.27,0.11 0.08,0.08 0.12,0.17 0.12,0.27 0,0.11 -0.04,0.2 -0.12,0.28 -0.07,0.07 -0.16,0.11 -0.27,0.11 -0.1,0 -0.19,-0.04 -0.27,-0.11 -0.08,-0.08 -0.12,-0.17 -0.12,-0.28zm6.02 5.32l-0.95 0 0 -3.85 -0.5 0 0 3.85 -0.95 0 0 -4.65 2.4 0 0 4.65zm2.21 -3.83c-0.06,0 -0.08,0.03 -0.08,0.09l0 2.83c0,0.04 0,0.06 0.01,0.08 0.01,0.01 0.04,0.02 0.08,0.02l0.35 0c0.04,0 0.06,-0.01 0.07,-0.02 0.01,-0.02 0.02,-0.04 0.02,-0.08l0 -2.83c0,-0.06 -0.03,-0.09 -0.08,-0.09l-0.37 0zm1.39 3.17c0,0.09 -0.01,0.18 -0.03,0.26 -0.02,0.07 -0.06,0.14 -0.11,0.2 -0.05,0.06 -0.12,0.11 -0.2,0.15 -0.09,0.04 -0.2,0.05 -0.32,0.05l-1.08 0c-0.13,0 -0.24,-0.01 -0.32,-0.05 -0.09,-0.04 -0.16,-0.09 -0.21,-0.15 -0.05,-0.06 -0.09,-0.13 -0.11,-0.2 -0.02,-0.08 -0.03,-0.17 -0.03,-0.26l0 -3.39c0,-0.18 0.05,-0.33 0.15,-0.44 0.1,-0.1 0.26,-0.16 0.48,-0.16l1.15 0c0.22,0 0.38,0.06 0.48,0.16 0.1,0.11 0.15,0.26 0.15,0.44l0 3.39zm2.14 -1.99l0.14 0 0.48 -2 0.96 0 -0.56 2.14 0.55 2.51 -1.02 0 -0.36 -1.92 -0.19 0 0 1.92 -0.95 0 0 -4.65 0.95 0 0 2zm4.1 2.65l-0.99 0 0.29 -1.18 -0.89 -3.47 0.96 0 0.42 2.2 0.42 -2.2 0.96 0 -1.17 4.65zm4.64 0l-0.95 0 0 -3.85 -0.51 0 0 3.85 -0.95 0 0 -4.65 2.41 0 0 4.65zm2.08 -0.57l-0.08 0.57 -0.94 0 0.84 -4.65 0.99 0 0.85 4.65 -0.94 0 -0.09 -0.57 -0.63 0zm0.1 -0.74l0.43 0 -0.21 -1.65 -0.22 1.65zm2.61 -3.34l1.97 0 0 0.87 -1.01 0 0 1.1 0.77 0 0 0.8 -0.77 0 0 1.02 0.98 0 0 0.86 -1.94 0 0 -4.65zm4 2.46l0 2.19 -0.9 0 0 -4.65 0.98 0 0.51 1.96 0.5 -1.96 0.99 0 0 4.65 -0.9 0 0 -2.19 -0.59 1.86 -0.59 -1.86zm6.81 -1.64l0 1.21 0.44 0c0.03,0 0.06,0 0.08,-0.02 0.02,-0.02 0.03,-0.05 0.03,-0.1l0 -1c0,-0.06 -0.03,-0.09 -0.08,-0.09l-0.47 0zm0.57 2.06c0,-0.06 -0.02,-0.09 -0.04,-0.11 -0.03,-0.02 -0.06,-0.03 -0.11,-0.03l-0.42 0 0 1.1 0.47 0c0.04,0 0.06,-0.01 0.08,-0.02 0.01,-0.02 0.02,-0.04 0.02,-0.08l0 -0.86zm0.87 -1.04c0,0.12 -0.02,0.22 -0.06,0.3 -0.05,0.08 -0.13,0.14 -0.26,0.18 0.13,0.01 0.22,0.05 0.28,0.13 0.06,0.08 0.09,0.18 0.09,0.28l0 1.2c0,0.26 -0.05,0.45 -0.16,0.56 -0.11,0.11 -0.3,0.16 -0.57,0.16l-1.68 0 0 -4.65 1.81 0c0.19,0 0.32,0.05 0.42,0.15 0.09,0.11 0.13,0.24 0.13,0.42l0 1.27zm1.96 2.81c-0.27,0 -0.46,-0.05 -0.56,-0.16 -0.11,-0.11 -0.16,-0.3 -0.16,-0.56l0 -3.36c0,-0.18 0.05,-0.32 0.15,-0.42 0.11,-0.1 0.24,-0.15 0.39,-0.15l1.39 0 0 0.87 -0.89 0c-0.06,0 -0.09,0.03 -0.09,0.09l0 2.74c0,0.06 0.03,0.09 0.09,0.09l0.89 0 0 0.86 -1.21 0zm-6.88 -2.63l1.37 0 -0.06 0.76 -1.37 0 0.06 -0.76zm9.21 -2.02l1.97 0 0 0.87 -1.01 0 0 1.1 0.77 0 0 0.8 -0.77 0 0 1.02 0.97 0 0 0.86 -1.93 0 0 -4.65zm0.06 -0.67c0,-0.1 0.04,-0.19 0.11,-0.27 0.08,-0.07 0.17,-0.11 0.27,-0.11 0.12,0 0.21,0.04 0.28,0.11 0.08,0.08 0.12,0.17 0.12,0.27 0,0.11 -0.04,0.2 -0.12,0.28 -0.07,0.07 -0.16,0.11 -0.28,0.11 -0.1,0 -0.19,-0.04 -0.27,-0.11 -0.07,-0.08 -0.11,-0.17 -0.11,-0.28zm1.03 0c0,-0.1 0.03,-0.19 0.11,-0.27 0.08,-0.07 0.17,-0.11 0.27,-0.11 0.11,0 0.2,0.04 0.28,0.11 0.07,0.08 0.11,0.17 0.11,0.27 0,0.11 -0.04,0.2 -0.11,0.28 -0.08,0.07 -0.17,0.11 -0.28,0.11 -0.1,0 -0.19,-0.04 -0.27,-0.11 -0.08,-0.08 -0.11,-0.17 -0.11,-0.28zm6.02 5.32l-0.95 0 0 -3.85 -0.51 0 0 3.85 -0.95 0 0 -4.65 2.41 0 0 4.65zm2.11 -3.83l0 1.82 0.46 0c0.04,0 0.06,0 0.07,-0.02 0.01,-0.01 0.02,-0.04 0.02,-0.07l0 -1.64c0,-0.06 -0.03,-0.09 -0.09,-0.09l-0.46 0zm0.9 -0.82c0.19,0 0.32,0.05 0.42,0.15 0.09,0.11 0.13,0.24 0.13,0.42l0 2.22c0,0.09 -0.01,0.17 -0.03,0.25 -0.02,0.07 -0.05,0.14 -0.1,0.2 -0.05,0.05 -0.12,0.09 -0.21,0.13 -0.08,0.03 -0.19,0.04 -0.32,0.04l-0.79 0 0 1.24 -0.93 0 0 -4.65 1.83 0zm2.74 0.82c-0.05,0 -0.08,0.03 -0.08,0.09l0 2.83c0,0.04 0,0.06 0.01,0.08 0.01,0.01 0.04,0.02 0.08,0.02l0.35 0c0.04,0 0.06,-0.01 0.07,-0.02 0.02,-0.02 0.02,-0.04 0.02,-0.08l0 -2.83c0,-0.06 -0.03,-0.09 -0.08,-0.09l-0.37 0zm1.39 3.17c0,0.09 -0.01,0.18 -0.03,0.26 -0.02,0.07 -0.06,0.14 -0.11,0.2 -0.05,0.06 -0.12,0.11 -0.2,0.15 -0.09,0.04 -0.2,0.05 -0.32,0.05l-1.08 0c-0.13,0 -0.24,-0.01 -0.32,-0.05 -0.09,-0.04 -0.16,-0.09 -0.21,-0.15 -0.05,-0.06 -0.09,-0.13 -0.11,-0.2 -0.02,-0.08 -0.03,-0.17 -0.03,-0.26l0 -3.39c0,-0.18 0.05,-0.33 0.15,-0.44 0.1,-0.1 0.26,-0.16 0.48,-0.16l1.15 0c0.22,0 0.38,0.06 0.48,0.16 0.1,0.11 0.15,0.26 0.15,0.44l0 3.39zm1.06 -0.14l0.23 0 0.48 -2.98c0.02,-0.1 0.04,-0.2 0.06,-0.3 0.02,-0.11 0.06,-0.2 0.12,-0.28 0.05,-0.09 0.12,-0.16 0.22,-0.21 0.1,-0.05 0.24,-0.08 0.41,-0.08l1.28 0 0 3.85 0.18 0 0 1.18 -0.74 0 0 -0.38 -1.49 0 0 0.38 -0.75 0 0 -1.18zm1.86 -2.98c-0.06,0 -0.11,0 -0.15,0.02 -0.04,0.01 -0.07,0.04 -0.09,0.08 -0.02,0.04 -0.04,0.09 -0.05,0.15 -0.01,0.07 -0.03,0.15 -0.05,0.25l-0.36 2.48 0.7 0 0 -2.98zm3.17 3.21l-0.09 0.57 -0.93 0 0.84 -4.65 0.99 0 0.84 4.65 -0.93 0 -0.09 -0.57 -0.63 0zm0.1 -0.74l0.43 0 -0.21 -1.65 -0.22 1.65zm2.61 -3.34l1.97 0 0 0.87 -1.01 0 0 1.1 0.77 0 0 0.8 -0.77 0 0 1.02 0.97 0 0 0.86 -1.93 0 0 -4.65zm4 2.46l0 2.19 -0.9 0 0 -4.65 0.98 0 0.5 1.96 0.51 -1.96 0.99 0 0 4.65 -0.91 0 0 -2.19 -0.59 1.86 -0.58 -1.86z"/>
   <path class="fil3" d="M12.93 38.94c-2.19,0 -4,-0.73 -5.42,-2.19 -1.43,-1.45 -2.15,-3.25 -2.15,-5.38 0,-2.15 0.72,-3.95 2.15,-5.4 1.42,-1.44 3.23,-2.17 5.42,-2.17 1.32,0 2.54,0.31 3.65,0.93 1.12,0.61 1.99,1.45 2.61,2.5l-2.47 1.44c-0.36,-0.66 -0.88,-1.16 -1.54,-1.53 -0.67,-0.37 -1.42,-0.55 -2.25,-0.55 -1.41,0 -2.55,0.44 -3.42,1.33 -0.86,0.88 -1.3,2.04 -1.3,3.45 0,1.4 0.44,2.54 1.3,3.43 0.87,0.89 2.01,1.33 3.42,1.33 0.83,0 1.59,-0.18 2.26,-0.55 0.67,-0.37 1.18,-0.87 1.53,-1.51l2.47 1.44c-0.62,1.05 -1.49,1.89 -2.6,2.5 -1.11,0.62 -2.33,0.93 -3.66,0.93zm19.4 -0.29l-3.3 0 -5.2 -6.82 0 6.82 -2.87 0 0 -14.56 2.87 0 0 6.42 4.99 -6.42 3.3 0 -5.38 7.07 5.59 7.49zm9.05 -14.56l2.87 0 -4.38 10.56c-1.16,2.81 -3.07,4.15 -5.73,4l0 -2.69c0.78,0.07 1.4,-0.03 1.88,-0.32 0.48,-0.28 0.88,-0.74 1.2,-1.38l-4.76 -10.17 2.87 0 3.19 7.01 2.86 -7.01zm15.3 0l0 14.56 -2.87 0 0 -11.81 -5.14 0 0 11.81 -2.86 0 0 -14.56 10.87 0zm14.08 14.56l-3.31 0 -5.2 -6.82 0 6.82 -2.87 0 0 -14.56 2.87 0 0 6.42 4.99 -6.42 3.31 0 -5.39 7.07 5.6 7.49zm11.35 0l-0.92 -2.62 -5.98 0 -0.88 2.62 -3.1 0 5.1 -14.56 3.55 0 5.14 14.56 -2.91 0zm-5.97 -5.31l4.1 0 -2.1 -5.94 -2 5.94z"/>
   <g>
    <path class="fil4" d="M96.21 30.12c0,0.27 0.18,0.5 0.55,0.67 0.36,0.18 0.81,0.33 1.34,0.46 0.52,0.13 1.05,0.3 1.58,0.5 0.52,0.2 0.97,0.54 1.34,1.01 0.37,0.47 0.55,1.06 0.55,1.76 0,1.07 -0.4,1.89 -1.2,2.47 -0.79,0.57 -1.79,0.86 -2.98,0.86 -2.13,0 -3.59,-0.82 -4.37,-2.47l2.33 -1.31c0.31,0.9 0.99,1.35 2.04,1.35 0.96,0 1.44,-0.3 1.44,-0.9 0,-0.27 -0.19,-0.5 -0.56,-0.67 -0.36,-0.17 -0.81,-0.33 -1.34,-0.47 -0.52,-0.14 -1.05,-0.31 -1.58,-0.52 -0.52,-0.21 -0.97,-0.54 -1.34,-0.99 -0.37,-0.45 -0.55,-1.01 -0.55,-1.69 0,-1.03 0.38,-1.83 1.13,-2.42 0.76,-0.59 1.7,-0.89 2.82,-0.89 0.85,0 1.62,0.19 2.31,0.57 0.69,0.39 1.24,0.93 1.64,1.64l-2.29 1.24c-0.33,-0.7 -0.88,-1.06 -1.66,-1.06 -0.35,0 -0.63,0.08 -0.86,0.23 -0.23,0.16 -0.34,0.36 -0.34,0.63z"/>
    <path class="fil4" d="M109.08 26.87c1.13,0 2.07,0.38 2.81,1.15 0.74,0.76 1.12,1.81 1.12,3.16l0 6.38 -2.69 0 0 -6.05c0,-0.69 -0.18,-1.22 -0.56,-1.59 -0.37,-0.37 -0.87,-0.55 -1.5,-0.55 -0.69,0 -1.24,0.21 -1.66,0.64 -0.41,0.43 -0.62,1.08 -0.62,1.94l0 5.61 -2.68 0 0 -16.54 2.68 0 0 7.31c0.65,-0.97 1.68,-1.46 3.1,-1.46z"/>
    <path class="fil4" d="M124.15 36.26c-1.07,1.06 -2.37,1.59 -3.91,1.59 -1.54,0 -2.84,-0.53 -3.9,-1.59 -1.06,-1.06 -1.59,-2.36 -1.59,-3.9 0,-1.54 0.53,-2.84 1.59,-3.9 1.06,-1.06 2.36,-1.59 3.9,-1.59 1.54,0 2.84,0.53 3.91,1.59 1.07,1.06 1.6,2.36 1.6,3.9 0,1.54 -0.53,2.84 -1.6,3.9zm-5.92 -1.84c0.54,0.54 1.21,0.81 2.01,0.81 0.81,0 1.48,-0.27 2.02,-0.81 0.54,-0.54 0.81,-1.23 0.81,-2.06 0,-0.83 -0.27,-1.52 -0.81,-2.06 -0.54,-0.54 -1.21,-0.81 -2.02,-0.81 -0.8,0 -1.47,0.27 -2.01,0.81 -0.53,0.54 -0.8,1.23 -0.8,2.06 0,0.83 0.27,1.52 0.8,2.06z"/>
    <path class="fil4" d="M133.69 26.87c1.4,0 2.6,0.53 3.59,1.59 0.99,1.06 1.49,2.36 1.49,3.9 0,1.54 -0.5,2.84 -1.49,3.9 -0.99,1.06 -2.19,1.59 -3.59,1.59 -1.45,0 -2.57,-0.5 -3.36,-1.52l0 5.39 -2.69 0 0 -14.56 2.69 0 0 1.23c0.79,-1.01 1.91,-1.52 3.36,-1.52zm-2.55 7.6c0.54,0.55 1.22,0.82 2.05,0.82 0.84,0 1.53,-0.27 2.07,-0.82 0.55,-0.54 0.83,-1.25 0.83,-2.11 0,-0.86 -0.28,-1.56 -0.83,-2.11 -0.54,-0.55 -1.23,-0.82 -2.07,-0.82 -0.83,0 -1.51,0.27 -2.05,0.82 -0.54,0.55 -0.81,1.25 -0.81,2.11 0,0.86 0.27,1.57 0.81,2.11z"/>
   </g>
   <polygon class="fil5" points="21.54,50.18 38.22,59.81 38.22,79.07 21.54,88.7 4.86,79.07 4.86,59.81 "/>
   <polygon class="fil6" points="21.54,50.77 29.62,55.44 37.71,60.11 37.71,69.44 37.71,78.78 29.62,83.45 21.54,88.12 13.45,83.45 5.36,78.78 5.36,69.44 5.36,60.11 13.45,55.44 "/>
   <path class="fil5" d="M24.07 75.6c0.78,-0.45 1.56,-0.9 2.35,-1.36 0,0.79 0,1.57 0,2.35 -0.79,0.46 -1.57,0.91 -2.35,1.36 0,-0.78 0,-1.57 0,-2.35zm0 -3.04l2.35 -1.36 0 2.35 -2.35 1.36 0 -2.35zm3.08 -0.86l8.58 -4.96 0 0.51 -8.58 4.96 0 -0.51zm-3.08 6.94c0.78,-0.45 1.56,-0.9 2.35,-1.35 0,0.78 0,1.56 0,2.35 -0.79,0.45 -1.57,0.9 -2.35,1.35 0,-0.78 0,-1.56 0,-2.35zm0 3.05l2.35 -1.36 0 2.35 -2.35 1.36 0 -2.35zm3.08 -0.86l8.58 -4.96 0 0.51 -8.58 4.96 0 -0.51zm0 -3.05c2.86,-1.65 5.72,-3.3 8.58,-4.95 0,0.17 0,0.34 0,0.51 -2.86,1.65 -5.72,3.3 -8.58,4.95 0,-0.17 0,-0.34 0,-0.51zm0 -3.04c2.86,-1.65 5.72,-3.3 8.58,-4.96 0,0.17 0,0.34 0,0.51 -2.86,1.66 -5.72,3.31 -8.58,4.96 0,-0.17 0,-0.34 0,-0.51z"/>
   <g>
    <polygon class="fil7" points="100.91,70.8 135.61,50.77 145.6,68.08 110.9,88.12 "/>
    <polygon class="fil8" points="104.04,71.64 111.74,84.99 142.47,67.24 134.77,53.9 "/>
    <path class="fil7" d="M141.51 65.57c0.94,-0.54 2.15,-0.22 2.69,0.72 0.54,0.94 0.22,2.15 -0.72,2.69 -0.94,0.55 -2.15,0.22 -2.69,-0.72 -0.55,-0.94 -0.22,-2.15 0.72,-2.69z"/>
    <path class="fil7" d="M133.78 52.19c0.95,-0.54 2.15,-0.22 2.69,0.72 0.55,0.94 0.23,2.15 -0.72,2.69 -0.94,0.55 -2.14,0.22 -2.69,-0.72 -0.54,-0.94 -0.22,-2.14 0.72,-2.69z"/>
    <path class="fil7" d="M103.05 69.93c0.94,-0.54 2.15,-0.22 2.69,0.73 0.55,0.94 0.22,2.14 -0.72,2.69 -0.94,0.54 -2.14,0.22 -2.69,-0.72 -0.54,-0.95 -0.22,-2.15 0.72,-2.7z"/>
    <path class="fil7" d="M110.78 83.31c0.94,-0.54 2.14,-0.22 2.69,0.72 0.54,0.95 0.22,2.15 -0.72,2.7 -0.95,0.54 -2.15,0.22 -2.69,-0.73 -0.55,-0.94 -0.23,-2.14 0.72,-2.69z"/>
    <path class="fil7" d="M120.41 64.51c2.72,-1.57 6.21,-0.64 7.78,2.08 1.57,2.73 0.64,6.21 -2.09,7.78 -2.72,1.58 -6.2,0.64 -7.78,-2.08 -1.57,-2.72 -0.64,-6.21 2.09,-7.78z"/>
    <g>
     <path class="fil7" d="M112.3 73.49c0.94,-0.54 2.15,-0.22 2.69,0.72 0.55,0.95 0.22,2.15 -0.72,2.69 -0.94,0.55 -2.15,0.23 -2.69,-0.72 -0.54,-0.94 -0.22,-2.14 0.72,-2.69z"/>
     <path class="fil7" d="M132.24 61.98c0.94,-0.54 2.15,-0.22 2.69,0.72 0.55,0.94 0.22,2.15 -0.72,2.69 -0.94,0.55 -2.15,0.22 -2.69,-0.72 -0.54,-0.94 -0.22,-2.15 0.72,-2.69z"/>
    </g>
   </g>
   <path class="fil3" d="M5.79 60.32c-0.28,-0.14 -0.43,0.26 -0.21,0.37l0.18 0.1c0.27,0.14 0.43,-0.25 0.21,-0.36l-0.18 -0.11zm15.54 9.46l0 0.08c0,0.12 0.09,0.21 0.2,0.21 0.12,0 0.22,-0.09 0.22,-0.21l0 -0.08 0.07 -0.05c0.24,-0.12 0.04,-0.48 -0.21,-0.36l-0.07 0.04 -0.08 -0.04c-0.28,-0.14 -0.43,0.25 -0.21,0.36l0.08 0.05zm0.42 1.33c0,-0.11 -0.1,-0.21 -0.21,-0.21 -0.12,0 -0.21,0.09 -0.21,0.21l0 0.42c0,0.11 0.09,0.21 0.2,0.21 0.12,0 0.22,-0.09 0.22,-0.21l0 -0.42zm0 1.67c0,-0.12 -0.1,-0.21 -0.21,-0.21 -0.12,0 -0.21,0.09 -0.21,0.21l0 0.41c0,0.12 0.09,0.21 0.2,0.21 0.12,0 0.22,-0.09 0.22,-0.21l0 -0.41zm0 1.66c0,-0.11 -0.1,-0.21 -0.21,-0.21 -0.12,0 -0.21,0.09 -0.21,0.21l0 0.42c0,0.11 0.09,0.21 0.2,0.21 0.12,0 0.22,-0.1 0.22,-0.21l0 -0.42zm0 1.66c0,-0.11 -0.1,-0.21 -0.21,-0.21 -0.12,0 -0.21,0.1 -0.21,0.21l0 0.42c0,0.12 0.09,0.21 0.2,0.21 0.12,0 0.22,-0.09 0.22,-0.21l0 -0.42zm0 1.67c0,-0.12 -0.1,-0.21 -0.21,-0.21 -0.12,0 -0.21,0.09 -0.21,0.21l0 0.41c0,0.12 0.09,0.22 0.2,0.22 0.12,0 0.22,-0.1 0.22,-0.22l0 -0.41zm0 1.66c0,-0.11 -0.1,-0.21 -0.21,-0.21 -0.12,0 -0.21,0.09 -0.21,0.21l0 0.42c0,0.11 0.09,0.21 0.2,0.21 0.12,0 0.22,-0.09 0.22,-0.21l0 -0.42zm0 1.67c0,-0.12 -0.1,-0.21 -0.21,-0.21 -0.12,0 -0.21,0.09 -0.21,0.21l0 0.41c0,0.12 0.09,0.21 0.2,0.21 0.12,0 0.22,-0.09 0.22,-0.21l0 -0.41zm0 1.66c0,-0.11 -0.1,-0.21 -0.21,-0.21 -0.12,0 -0.21,0.09 -0.21,0.21l0 0.42c0,0.11 0.09,0.21 0.2,0.21 0.12,0 0.22,-0.09 0.22,-0.21l0 -0.42zm0 1.67c0,-0.12 -0.1,-0.22 -0.21,-0.22 -0.12,0 -0.21,0.1 -0.21,0.22l0 0.41c0,0.12 0.09,0.21 0.2,0.21 0.12,0 0.22,-0.09 0.22,-0.21l0 -0.41zm0 1.66c0,-0.12 -0.1,-0.21 -0.21,-0.21 -0.12,0 -0.21,0.09 -0.21,0.21l0 0.42c0,0.11 0.09,0.21 0.2,0.21 0.12,0 0.22,-0.1 0.22,-0.21l0 -0.42zm0 1.66c0,-0.11 -0.1,-0.21 -0.21,-0.21 -0.12,0 -0.21,0.1 -0.21,0.21l0 0.21c0,0.12 0.09,0.21 0.2,0.21 0.12,0 0.22,-0.09 0.22,-0.21l0 -0.21zm15.75 -27.06c0.23,-0.12 0.03,-0.49 -0.22,-0.37l-0.18 0.1c-0.23,0.12 -0.03,0.49 0.22,0.37l0.18 -0.1zm-1.27 0.72c0.24,-0.12 0.04,-0.48 -0.21,-0.36l-0.36 0.21c-0.24,0.12 -0.03,0.49 0.21,0.36l0.36 -0.21zm-1.44 0.84c0.24,-0.12 0.04,-0.49 -0.21,-0.37l-0.36 0.21c-0.24,0.12 -0.03,0.49 0.21,0.37l0.36 -0.21zm-1.44 0.83c0.24,-0.12 0.04,-0.49 -0.21,-0.36l-0.36 0.2c-0.24,0.12 -0.04,0.49 0.21,0.37l0.36 -0.21zm-1.44 0.83c0.24,-0.12 0.03,-0.49 -0.21,-0.36l-0.36 0.21c-0.24,0.11 -0.04,0.48 0.21,0.36l0.36 -0.21zm-1.44 0.83c0.24,-0.12 0.03,-0.48 -0.21,-0.36l-0.36 0.21c-0.24,0.12 -0.04,0.48 0.21,0.36l0.36 -0.21zm-1.44 0.84c0.24,-0.12 0.03,-0.49 -0.21,-0.37l-0.36 0.21c-0.24,0.12 -0.04,0.49 0.21,0.36l0.36 -0.2zm-1.44 0.83c0.24,-0.12 0.03,-0.49 -0.21,-0.37l-0.36 0.21c-0.24,0.12 -0.04,0.49 0.21,0.37l0.36 -0.21zm-1.44 0.83c0.23,-0.12 0.03,-0.49 -0.22,-0.37l-0.36 0.21c-0.23,0.12 -0.03,0.49 0.22,0.37l0.36 -0.21zm-1.45 0.83c0.24,-0.12 0.04,-0.49 -0.21,-0.36l-0.36 0.2c-0.24,0.12 -0.03,0.49 0.21,0.37l0.36 -0.21zm-1.44 0.83c0.24,-0.12 0.04,-0.49 -0.21,-0.36l-0.36 0.21c-0.24,0.11 -0.03,0.48 0.21,0.36l0.36 -0.21zm-3.09 0.21c0.27,0.14 0.43,-0.25 0.21,-0.36l-0.36 -0.21c-0.28,-0.14 -0.43,0.25 -0.21,0.36l0.36 0.21zm-1.44 -0.83c0.27,0.13 0.43,-0.26 0.21,-0.37l-0.36 -0.21c-0.28,-0.13 -0.43,0.26 -0.21,0.37l0.36 0.21zm-1.44 -0.84c0.27,0.14 0.43,-0.25 0.21,-0.36l-0.36 -0.21c-0.28,-0.14 -0.44,0.26 -0.21,0.37l0.36 0.2zm-1.45 -0.83c0.28,0.14 0.43,-0.25 0.21,-0.36l-0.36 -0.21c-0.27,-0.14 -0.43,0.25 -0.21,0.36l0.36 0.21zm-1.44 -0.83c0.28,0.14 0.43,-0.25 0.21,-0.36l-0.36 -0.21c-0.27,-0.14 -0.43,0.25 -0.21,0.36l0.36 0.21zm-1.44 -0.83c0.28,0.14 0.43,-0.26 0.21,-0.37l-0.36 -0.2c-0.27,-0.14 -0.43,0.25 -0.21,0.36l0.36 0.21zm-1.44 -0.83c0.28,0.13 0.43,-0.26 0.21,-0.37l-0.36 -0.21c-0.27,-0.13 -0.43,0.26 -0.21,0.37l0.36 0.21zm-1.44 -0.84c0.28,0.14 0.43,-0.25 0.21,-0.36l-0.36 -0.21c-0.28,-0.13 -0.43,0.26 -0.21,0.37l0.36 0.2zm-1.44 -0.83c0.28,0.14 0.43,-0.25 0.21,-0.36l-0.36 -0.21c-0.28,-0.14 -0.43,0.26 -0.21,0.37l0.36 0.2zm-1.44 -0.83c0.27,0.14 0.43,-0.25 0.21,-0.36l-0.36 -0.21c-0.28,-0.14 -0.43,0.25 -0.21,0.36l0.36 0.21z"/>
  </g>
 </g>
</svg>
