<?xml version="1.0" encoding="UTF-8"?>
<!DOCTYPE svg PUBLIC "-//W3C//DTD SVG 1.1//EN" "http://www.w3.org/Graphics/SVG/1.1/DTD/svg11.dtd">
<!-- Creator: CorelDRAW 2020 (64-Bit) -->
<svg xmlns="http://www.w3.org/2000/svg" xml:space="preserve" width="210mm" height="297mm" version="1.1" style="shape-rendering:geometricPrecision; text-rendering:geometricPrecision; image-rendering:optimizeQuality; fill-rule:evenodd; clip-rule:evenodd"
viewBox="0 0 21000 29700"
 xmlns:xlink="http://www.w3.org/1999/xlink"
 xmlns:xodm="http://www.corel.com/coreldraw/odm/2003">
 <defs>
  <style type="text/css">
   <![CDATA[
    .fil5 {fill:black}
    .fil7 {fill:#005200}
    .fil8 {fill:#99BCB5}
    .fil1 {fill:#C30000}
    .fil6 {fill:yellow}
    .fil3 {fill:black;fill-rule:nonzero}
    .fil2 {fill:#005200;fill-rule:nonzero}
    .fil0 {fill:#C30000;fill-rule:nonzero}
    .fil4 {fill:white;fill-rule:nonzero}
   ]]>
  </style>
 </defs>
 <g id="Слой_x0020_1">
  <metadata id="CorelCorpID_0Corel-Layer"/>
  <g id="_2758276138208">
   <path class="fil0" d="M9552.65 15203.69c88.59,-88.59 232.24,-88.59 320.84,0 88.59,88.6 88.59,232.25 0,320.84l-1882.71 1882.74c-88.6,88.59 -232.24,88.59 -320.84,0 -22.25,-22.26 -38.9,-47.95 -49.98,-75.4l-162.87 -330.75 -478.43 1894.72 1246.19 335.51 -227.05 -575.5c-37.45,-95.87 -5.09,-201.81 72.47,-261.67l3237.36 -2855.86 -331.21 -839.66c-19.55,-45.2 -24.59,-97.06 -10.91,-148.33 32.29,-120.88 156.51,-192.68 277.39,-160.39l1896.39 510.56c119.24,31.85 191.32,153.65 161.3,273.84l-683.79 2707.83 -0.26 -0.07c-15.59,62.23 -57.37,117.46 -119.39,148.07 -112.06,55.31 -247.78,9.26 -303.09,-102.8l-302.43 -614.15 -1659.13 1659.13c-88.59,88.59 -232.24,88.59 -320.84,0 -88.59,-88.6 -88.59,-232.25 0,-320.84l1882.73 -1882.74c88.6,-88.59 232.25,-88.59 320.85,0 22.25,22.26 38.89,47.98 49.98,75.43l162.84 330.69 478.46 -1894.69 -1246.2 -335.53 227.03 575.52c37.45,95.87 5.09,201.81 -72.47,261.67l-3237.36 2855.86 331.24 839.66c19.55,45.2 24.59,97.06 10.9,148.33 -32.28,120.88 -156.51,192.68 -277.39,160.39l-1896.39 -510.56c-119.23,-31.85 -191.32,-153.65 -161.3,-273.84l683.77 -2707.83 0.26 0.07c15.59,-62.23 57.39,-117.46 119.39,-148.07 112.06,-55.31 247.78,-9.26 303.09,102.8l302.42 614.15 1659.14 -1659.13z"/>
   <path class="fil1" d="M13877.52 9907.22l4617.1 0c1017.81,0 1850.57,832.76 1850.57,1850.56l0 0.04c0,1017.8 -832.76,1850.56 -1850.57,1850.56l-4617.1 0c-1017.81,0 -1850.58,-832.76 -1850.58,-1850.56l0 -0.04c0,-1017.8 832.77,-1850.56 1850.58,-1850.56z"/>
   <path class="fil2" d="M841.07 13340.71l0 170.7 61.09 0c4.79,0 8.68,-1.34 11.68,-4.04 2.99,-2.69 4.49,-7.04 4.49,-13.03l0 -141.05c0,-8.38 -3.89,-12.58 -11.68,-12.58l-65.58 0zm79.06 288.4c0,-7.19 -1.8,-12.13 -5.39,-14.83 -3.6,-2.69 -8.39,-4.04 -14.38,-4.04l-59.29 0 0 153.63 65.58 0c5.39,0 8.98,-1.05 10.78,-3.14 1.8,-2.1 2.7,-5.54 2.7,-10.34l0 -121.28zm123.08 -144.65c0,16.17 -3.14,30.1 -9.43,41.78 -6.29,11.68 -18.12,19.91 -35.49,24.71 17.97,1.19 30.99,7.48 39.08,18.86 8.09,11.38 12.13,24.26 12.13,38.63l0 168.91c0,35.93 -7.49,61.69 -22.46,77.26 -14.98,15.57 -41.33,23.36 -79.06,23.36l-236.29 0 0 -651.35 254.26 0c25.75,0 45.07,7.18 57.94,21.56 12.88,14.37 19.32,33.54 19.32,57.5l0 178.78zm274.01 393.51c-37.73,0 -64.08,-7.79 -79.06,-23.36 -14.97,-15.57 -22.46,-41.33 -22.46,-77.26l0 -470.78c0,-25.75 7.34,-45.52 22.01,-59.29 14.68,-13.78 32.8,-20.66 54.36,-20.66l194.06 0 0 121.28 -124.88 0c-7.79,0 -11.68,4.19 -11.68,12.58l0 383.63c0,8.38 3.89,12.57 11.68,12.57l124.88 0 0 121.29 -168.91 0zm326.13 -651.35l275.82 0 0 121.28 -141.95 0 0 154.53 107.81 0 0 112.3 -107.81 0 0 141.95 136.56 0 0 121.29 -270.43 0 0 -651.35zm8.09 -93.44c0,-14.37 5.39,-26.95 16.17,-37.73 10.78,-10.78 23.36,-16.18 37.73,-16.18 15.58,0 28.6,5.4 39.08,16.18 10.49,10.78 15.73,23.36 15.73,37.73 0,14.97 -5.24,27.7 -15.73,38.18 -10.48,10.48 -23.5,15.73 -39.08,15.73 -14.37,0 -26.95,-5.25 -37.73,-15.73 -10.78,-10.48 -16.17,-23.21 -16.17,-38.18zm143.75 0c0,-14.37 5.39,-26.95 16.17,-37.73 10.78,-10.78 23.36,-16.18 37.73,-16.18 14.97,0 27.85,5.4 38.63,16.18 10.78,10.78 16.17,23.36 16.17,37.73 0,14.97 -5.39,27.7 -16.17,38.18 -10.78,10.48 -23.66,15.73 -38.63,15.73 -14.37,0 -26.95,-5.25 -37.73,-15.73 -10.78,-10.48 -16.17,-23.21 -16.17,-38.18zm842.71 744.79l-132.97 0 0 -539.05 -70.97 0 0 539.05 -132.97 0 0 -651.35 336.91 0 0 651.35zm309.05 -537.26c-7.78,0 -11.68,4.2 -11.68,12.58l0 397.1c0,4.8 0.75,8.24 2.25,10.34 1.5,2.09 4.94,3.14 10.33,3.14l49.41 0c5.39,0 8.84,-1.05 10.33,-3.14 1.5,-2.1 2.25,-5.54 2.25,-10.34l0 -397.1c0,-8.38 -3.89,-12.58 -11.68,-12.58l-51.21 0zm194.96 444.72c0,12.58 -1.5,24.41 -4.49,35.49 -3,11.08 -8.09,20.81 -15.28,29.2 -7.18,8.38 -16.77,15.12 -28.75,20.21 -11.98,5.09 -26.95,7.64 -44.92,7.64l-150.93 0c-17.97,0 -32.94,-2.55 -44.92,-7.64 -11.98,-5.09 -21.56,-11.83 -28.75,-20.21 -7.19,-8.39 -12.28,-18.12 -15.28,-29.2 -2.99,-11.08 -4.49,-22.91 -4.49,-35.49l0 -474.36c0,-25.76 7.04,-46.27 21.12,-61.54 14.07,-15.28 36.38,-22.91 66.93,-22.91l161.71 0c30.55,0 52.86,7.63 66.94,22.91 14.07,15.27 21.11,35.78 21.11,61.54l0 474.36zm299.17 -279.41l19.76 0 66.49 -279.4 134.76 0 -78.16 300.07 77.26 351.28 -142.85 0 -51.21 -268.63 -26.05 0 0 268.63 -132.97 0 0 -651.35 132.97 0 0 279.4zm574.08 371.95l-139.25 0 41.32 -165.31 -124.88 -486.04 134.77 0 58.39 307.26 59.3 -307.26 134.76 0 -164.41 651.35zm649.56 0l-132.97 0 0 -539.05 -70.97 0 0 539.05 -132.97 0 0 -651.35 336.91 0 0 651.35zm291.08 -80.86l-11.68 80.86 -131.17 0 117.7 -651.35 139.25 0 117.7 651.35 -131.17 0 -11.68 -80.86 -88.95 0zm14.38 -103.32l60.19 0 -29.65 -230.89 -30.54 230.89zm365.65 -467.17l275.82 0 0 121.28 -141.95 0 0 154.53 107.81 0 0 112.3 -107.81 0 0 141.95 136.56 0 0 121.29 -270.43 0 0 -651.35zm559.72 344.09l0 307.26 -126.68 0 0 -651.35 137.46 0 70.98 274.91 70.97 -274.91 138.36 0 0 651.35 -126.68 0 0 -307.26 -82.65 260.54 -81.76 -260.54zm953.22 -230l0 170.7 61.09 0c4.79,0 8.68,-1.34 11.68,-4.04 2.99,-2.69 4.49,-7.04 4.49,-13.03l0 -141.05c0,-8.38 -3.89,-12.58 -11.68,-12.58l-65.58 0zm79.06 288.4c0,-7.19 -1.8,-12.13 -5.39,-14.83 -3.6,-2.69 -8.39,-4.04 -14.38,-4.04l-59.29 0 0 153.63 65.58 0c5.39,0 8.98,-1.05 10.78,-3.14 1.8,-2.1 2.7,-5.54 2.7,-10.34l0 -121.28zm123.08 -144.65c0,16.17 -3.14,30.1 -9.43,41.78 -6.29,11.68 -18.12,19.91 -35.49,24.71 17.97,1.19 30.99,7.48 39.08,18.86 8.09,11.38 12.13,24.26 12.13,38.63l0 168.91c0,35.93 -7.49,61.69 -22.46,77.26 -14.98,15.57 -41.33,23.36 -79.06,23.36l-236.29 0 0 -651.35 254.26 0c25.75,0 45.07,7.18 57.94,21.56 12.88,14.37 19.32,33.54 19.32,57.5l0 178.78zm274.01 393.51c-37.73,0 -64.08,-7.79 -79.06,-23.36 -14.97,-15.57 -22.46,-41.33 -22.46,-77.26l0 -470.78c0,-25.75 7.34,-45.52 22.01,-59.29 14.68,-13.78 32.8,-20.66 54.36,-20.66l194.06 0 0 121.28 -124.88 0c-7.79,0 -11.68,4.19 -11.68,12.58l0 383.63c0,8.38 3.89,12.57 11.68,12.57l124.88 0 0 121.29 -168.91 0zm-963.09 -369.25l191.36 0 -8.98 106.91 -191.37 0 8.99 -106.91zm1289.22 -282.1l275.82 0 0 121.28 -141.95 0 0 154.53 107.81 0 0 112.3 -107.81 0 0 141.95 136.56 0 0 121.29 -270.43 0 0 -651.35zm8.09 -93.44c0,-14.37 5.39,-26.95 16.17,-37.73 10.78,-10.78 23.36,-16.18 37.73,-16.18 15.58,0 28.6,5.4 39.08,16.18 10.49,10.78 15.73,23.36 15.73,37.73 0,14.97 -5.24,27.7 -15.73,38.18 -10.48,10.48 -23.5,15.73 -39.08,15.73 -14.37,0 -26.95,-5.25 -37.73,-15.73 -10.78,-10.48 -16.17,-23.21 -16.17,-38.18zm143.75 0c0,-14.37 5.39,-26.95 16.17,-37.73 10.78,-10.78 23.36,-16.18 37.73,-16.18 14.97,0 27.85,5.4 38.63,16.18 10.78,10.78 16.17,23.36 16.17,37.73 0,14.97 -5.39,27.7 -16.17,38.18 -10.78,10.48 -23.66,15.73 -38.63,15.73 -14.37,0 -26.95,-5.25 -37.73,-15.73 -10.78,-10.48 -16.17,-23.21 -16.17,-38.18zm842.71 744.79l-132.97 0 0 -539.05 -70.97 0 0 539.05 -132.97 0 0 -651.35 336.91 0 0 651.35zm295.58 -537.26l0 256.05 64.68 0c5.39,0 8.84,-1.04 10.33,-3.14 1.5,-2.1 2.25,-5.54 2.25,-10.33l0 -230c0,-8.38 -3.89,-12.58 -11.68,-12.58l-65.58 0zm126.67 -114.09c25.76,0 45.07,7.18 57.95,21.56 12.88,14.37 19.32,33.54 19.32,57.5l0 311.75c0,12.58 -1.35,24.11 -4.05,34.59 -2.69,10.48 -7.63,19.61 -14.82,27.4 -7.19,7.79 -16.77,13.92 -28.75,18.42 -11.98,4.49 -26.95,6.73 -44.92,6.73l-111.4 0 0 173.4 -129.38 0 0 -651.35 256.05 0zm383.62 114.09c-7.78,0 -11.68,4.2 -11.68,12.58l0 397.1c0,4.8 0.75,8.24 2.25,10.34 1.5,2.09 4.94,3.14 10.33,3.14l49.41 0c5.39,0 8.84,-1.05 10.33,-3.14 1.5,-2.1 2.25,-5.54 2.25,-10.34l0 -397.1c0,-8.38 -3.89,-12.58 -11.68,-12.58l-51.21 0zm194.96 444.72c0,12.58 -1.5,24.41 -4.49,35.49 -3,11.08 -8.09,20.81 -15.28,29.2 -7.18,8.38 -16.77,15.12 -28.75,20.21 -11.98,5.09 -26.95,7.64 -44.92,7.64l-150.93 0c-17.97,0 -32.94,-2.55 -44.92,-7.64 -11.98,-5.09 -21.56,-11.83 -28.75,-20.21 -7.19,-8.39 -12.28,-18.12 -15.28,-29.2 -2.99,-11.08 -4.49,-22.91 -4.49,-35.49l0 -474.36c0,-25.76 7.04,-46.27 21.12,-61.54 14.07,-15.28 36.38,-22.91 66.93,-22.91l161.71 0c30.55,0 52.86,7.63 66.94,22.91 14.07,15.27 21.11,35.78 21.11,61.54l0 474.36zm148.23 -19.76l32.35 0 66.48 -416.87c2.4,-14.37 5.24,-28.75 8.54,-43.12 3.29,-14.38 8.68,-27.41 16.17,-39.08 7.48,-11.68 18.12,-21.27 31.89,-28.75 13.78,-7.49 32.64,-11.23 56.6,-11.23l179.69 0 0 539.05 25.15 0 0 164.41 -104.22 0 0 -52.11 -208.43 0 0 52.11 -104.22 0 0 -164.41zm260.55 -417.77c-8.99,0 -16.18,1.05 -21.57,3.15 -5.39,2.09 -9.58,5.84 -12.57,11.23 -3,5.39 -5.39,12.57 -7.19,21.56 -1.8,8.98 -3.89,20.66 -6.29,35.04l-50.31 346.79 97.03 0 0.9 -417.77zm442.91 449.21l-11.68 80.86 -131.17 0 117.7 -651.35 139.25 0 117.7 651.35 -131.17 0 -11.68 -80.86 -88.95 0zm14.38 -103.32l60.19 0 -29.65 -230.89 -30.54 230.89zm365.65 -467.17l275.82 0 0 121.28 -141.95 0 0 154.53 107.81 0 0 112.3 -107.81 0 0 141.95 136.56 0 0 121.29 -270.43 0 0 -651.35zm559.72 344.09l0 307.26 -126.68 0 0 -651.35 137.46 0 70.98 274.91 70.97 -274.91 138.36 0 0 651.35 -126.68 0 0 -307.26 -82.65 260.54 -81.76 -260.54z"/>
   <path class="fil3" d="M1771.25 12817.38c-306.62,0 -559.87,-101.88 -759.75,-305.64 -199.89,-203.77 -299.83,-455.08 -299.83,-753.93 0,-300.8 99.94,-552.59 299.83,-755.39 199.88,-202.79 453.13,-304.19 759.75,-304.19 184.35,0 354.64,43.18 510.86,129.54 156.22,86.36 277.99,203.28 365.32,350.76l-346.4 200.86c-50.45,-91.21 -122.26,-162.53 -215.41,-213.95 -93.14,-51.43 -197.94,-77.14 -314.37,-77.14 -197.95,0 -357.56,62.1 -478.85,186.3 -121.29,124.19 -181.93,285.27 -181.93,483.21 0,196 60.64,356.1 181.93,480.3 121.29,124.2 280.9,186.3 478.85,186.3 116.43,0 221.71,-25.71 315.83,-77.14 94.12,-51.43 165.44,-121.77 213.95,-211.04l346.4 200.85c-87.33,147.49 -208.61,264.41 -363.86,350.77 -155.25,86.35 -326.03,129.53 -512.32,129.53zm2715.88 -40.75l-462.83 0 -727.73 -954.3 0 954.3 -401.71 0 0 -2037.64 401.71 0 0 898.01 698.62 -898.01 462.83 0 -753.92 989.71 783.03 1047.93zm1266.26 -2037.64l401.7 0 -612.26 1477.77c-163.01,394.43 -430.82,580.73 -802.44,559.87l0 -375.51c108.67,9.7 196.48,-5.34 263.43,-45.12 66.96,-39.78 122.75,-104.31 167.38,-193.57l-666.6 -1423.44 401.71 0 446.82 981.46 400.26 -981.46zm2142.43 0l0 2037.64 -401.71 0 0 -1653.4 -718.99 0 0 1653.4 -401.71 0 0 -2037.64 1522.41 0zm1970.69 2037.64l-462.83 0 -727.73 -954.3 0 954.3 -401.71 0 0 -2037.64 401.71 0 0 898.01 698.62 -898.01 462.83 0 -753.92 989.71 783.03 1047.93zm1589.85 0l-129.54 -366.78 -837.37 0 -122.26 366.78 -433.73 0 713.18 -2037.64 497.76 0 719 2037.64 -407.04 0zm-835.92 -742.28l573.45 0 -294 -832.53 -279.45 832.53z"/>
   <g>
    <path class="fil4" d="M13429.44 11582.46c0,38.81 25.72,70.35 77.14,94.61 51.43,24.25 114.01,45.6 187.76,64.04 73.74,18.43 147.48,41.72 221.23,69.86 73.74,28.14 136.33,75.2 187.75,141.18 51.43,65.98 77.14,148.45 77.14,247.43 0,149.42 -55.79,264.4 -167.38,344.94 -111.58,80.54 -250.82,120.8 -417.71,120.8 -298.86,0 -502.62,-115.46 -611.3,-346.4l326.03 -183.38c42.69,126.14 137.78,189.21 285.27,189.21 133.9,0 200.85,-41.73 200.85,-125.17 0,-38.82 -25.71,-70.35 -77.14,-94.61 -51.43,-24.26 -114.01,-46.09 -187.75,-65.49 -73.75,-19.41 -147.49,-43.67 -221.23,-72.78 -73.75,-29.11 -136.33,-75.2 -187.76,-138.27 -51.42,-63.07 -77.14,-142.15 -77.14,-237.24 0,-143.6 52.88,-256.64 158.65,-339.12 105.76,-82.47 237.24,-123.71 394.43,-123.71 118.37,0 226.08,26.68 323.11,80.05 97.03,53.36 173.68,129.53 229.96,228.5l-320.2 174.66c-46.57,-98.97 -124.2,-148.46 -232.87,-148.46 -48.52,0 -88.79,10.68 -120.81,32.02 -32.02,21.35 -48.03,50.46 -48.03,87.33z"/>
    <path class="fil4" d="M15231.29 11128.35c159.14,0 290.62,53.37 394.44,160.11 103.82,106.72 155.74,254.22 155.74,442.45l0 893.66 -375.52 0 0 -847.08c0,-97.03 -26.2,-171.27 -78.6,-222.68 -52.38,-51.44 -122.25,-77.15 -209.57,-77.15 -97.03,0 -174.66,30.08 -232.88,90.24 -58.23,60.16 -87.32,150.4 -87.32,270.72l0 785.95 -375.53 0 0 -2315.72 375.53 0 0 1023.27c91.21,-135.86 235.78,-203.77 433.71,-203.77z"/>
    <path class="fil4" d="M17341.73 12442.64c-149.43,148.45 -331.85,222.68 -547.26,222.68 -215.4,0 -397.34,-74.23 -545.79,-222.68 -148.46,-148.46 -222.69,-330.39 -222.69,-545.8 0,-215.41 74.23,-397.34 222.69,-545.8 148.45,-148.45 330.39,-222.68 545.79,-222.68 215.41,0 397.83,74.23 547.26,222.68 149.42,148.46 224.14,330.39 224.14,545.8 0,215.41 -74.72,397.34 -224.14,545.8zm-828.16 -257.62c74.71,75.69 168.35,113.53 280.9,113.53 112.56,0 206.68,-37.84 282.36,-113.53 75.69,-75.68 113.53,-171.74 113.53,-288.18 0,-116.44 -37.84,-212.5 -113.53,-288.18 -75.68,-75.68 -169.8,-113.53 -282.36,-113.53 -112.55,0 -206.19,37.85 -280.9,113.53 -74.71,75.68 -112.07,171.74 -112.07,288.18 0,116.44 37.36,212.5 112.07,288.18z"/>
    <path class="fil4" d="M18677.83 11128.36c196,0 363.38,74.23 502.14,222.68 138.75,148.46 208.13,330.39 208.13,545.8 0,215.41 -69.38,397.34 -208.13,545.8 -138.76,148.45 -306.14,222.68 -502.14,222.68 -203.76,0 -360.95,-70.83 -471.57,-212.49l0 753.92 -375.51 0 0 -2037.64 375.51 0 0 171.74c110.62,-141.66 267.81,-212.49 471.57,-212.49zm-358.04 1063.94c75.68,76.65 171.74,114.98 288.18,114.98 116.44,0 212.98,-38.33 289.64,-114.98 76.65,-76.66 114.98,-175.14 114.98,-295.46 0,-120.32 -38.33,-218.8 -114.98,-295.46 -76.66,-76.65 -173.2,-114.98 -289.64,-114.98 -116.44,0 -212.5,38.33 -288.18,114.98 -75.69,76.66 -113.53,175.14 -113.53,295.46 0,120.32 37.84,218.8 113.53,295.46z"/>
   </g>
   <polygon class="fil5" points="2975.81,14391.46 5311.07,15739.74 5311.07,18436.26 2975.81,19784.54 640.53,18436.26 640.53,15739.74 "/>
   <polygon class="fil6" points="2975.8,14473.66 4107.85,15127.24 5239.9,15780.84 5239.9,17088 5239.9,18395.16 4107.85,19048.77 2975.8,19702.35 1843.75,19048.77 711.7,18395.16 711.7,17088 711.7,15780.84 1843.75,15127.24 "/>
   <path class="fil5" d="M3329.94 17950.12c109.68,-63.33 219.37,-126.65 329.04,-189.97 0,109.67 0,219.35 0,329.03 -109.67,63.32 -219.36,126.65 -329.04,189.97 0,-109.68 0,-219.36 0,-329.03zm0 -426.01l329.04 -189.97 0 329.04 -329.04 189.97 0 -329.04zm431.58 -120.42l1201.73 -693.82 0 71.54 -1201.73 693.81 0 -71.53zm-431.58 972.44c109.68,-63.33 219.37,-126.65 329.04,-189.97 0,109.67 0,219.35 0,329.04 -109.67,63.32 -219.36,126.64 -329.04,189.97 0,-109.69 0,-219.37 0,-329.04zm0 426l329.04 -189.97 0 329.04 -329.04 189.97 0 -329.04zm431.58 -120.42l1201.73 -693.82 0 71.54 -1201.73 693.81 0 -71.53zm0 -426c400.59,-231.28 801.16,-462.55 1201.73,-693.82 0,23.84 0,47.69 0,71.53 -400.57,231.27 -801.14,462.55 -1201.73,693.82 0,-23.84 0,-47.69 0,-71.53zm0 -426.02c400.59,-231.27 801.16,-462.54 1201.73,-693.81 0,23.84 0,47.69 0,71.53 -400.57,231.27 -801.14,462.54 -1201.73,693.82 0,-23.85 0,-47.69 0,-71.54z"/>
   <g>
    <polygon class="fil7" points="14087.84,17278.37 18945.72,14473.68 20345.2,16897.64 15487.32,19702.34 "/>
    <polygon class="fil8" points="14525.95,17395.77 15604.71,19264.23 19907.08,16780.25 18828.32,14911.79 "/>
    <path class="fil7" d="M19771.84 16546.01c131.89,-76.15 300.55,-30.96 376.7,100.93 76.15,131.9 30.95,300.55 -100.94,376.7 -131.89,76.15 -300.55,30.96 -376.7,-100.94 -76.15,-131.89 -30.96,-300.55 100.94,-376.69z"/>
    <path class="fil7" d="M18690.44 14672.97c131.89,-76.15 300.55,-30.95 376.7,100.94 76.15,131.89 30.96,300.55 -100.94,376.7 -131.89,76.15 -300.55,30.96 -376.69,-100.94 -76.15,-131.89 -30.96,-300.55 100.93,-376.7z"/>
    <path class="fil7" d="M14388.07 17156.95c131.89,-76.15 300.55,-30.96 376.7,100.93 76.15,131.9 30.96,300.56 -100.94,376.7 -131.89,76.15 -300.55,30.96 -376.7,-100.93 -76.15,-131.9 -30.95,-300.55 100.94,-376.7z"/>
    <path class="fil7" d="M15469.47 19029.98c131.89,-76.15 300.55,-30.96 376.7,100.94 76.14,131.89 30.95,300.55 -100.94,376.7 -131.89,76.15 -300.55,30.95 -376.7,-100.94 -76.15,-131.89 -30.96,-300.55 100.94,-376.7z"/>
    <path class="fil7" d="M16817.9 16397.57c381.31,-220.16 868.9,-89.51 1089.05,291.81 220.15,381.32 89.51,868.9 -291.81,1089.05 -381.32,220.16 -868.9,89.51 -1089.06,-291.81 -220.15,-381.31 -89.5,-868.9 291.82,-1089.05z"/>
    <g>
     <path class="fil7" d="M15682.86 17655.03c131.9,-76.15 300.55,-30.95 376.7,100.94 76.15,131.89 30.96,300.55 -100.93,376.7 -131.9,76.15 -300.55,30.96 -376.7,-100.94 -76.15,-131.89 -30.96,-300.55 100.93,-376.7z"/>
     <path class="fil7" d="M18474.41 16043.33c131.89,-76.14 300.55,-30.95 376.7,100.94 76.15,131.89 30.95,300.55 -100.94,376.7 -131.89,76.15 -300.55,30.96 -376.7,-100.94 -76.15,-131.89 -30.95,-300.55 100.94,-376.7z"/>
    </g>
   </g>
   <path class="fil3" d="M770.73 15811.04c-38.6,-19.26 -60.26,35.65 -29.4,51.05l25.45 14.69c38.6,19.26 60.26,-35.65 29.39,-51.05l-25.44 -14.69zm2175.48 1324.04l0 12.06c0,16.01 13.15,29.47 29.08,29.47 16.55,0 29.86,-12.92 29.86,-29.47l0 -12.06 10.75 -6.19c33.41,-16.71 4.87,-68.3 -29.55,-51.05l-10.67 6.19 -10.6 -6.11c-38.59,-19.26 -60.25,35.65 -29.39,51.05l10.52 6.11zm58.94 186.79c0,-16.01 -13.15,-29.47 -29.08,-29.47 -16.56,0 -29.86,12.92 -29.86,29.47l0 58.24c0,16.01 13.15,29.47 29.08,29.47 16.55,0 29.86,-12.91 29.86,-29.47l0 -58.24zm0 232.97c0,-16.01 -13.15,-29.47 -29.08,-29.47 -16.56,0 -29.86,12.92 -29.86,29.47l0 58.25c0,16.01 13.15,29.46 29.08,29.46 16.55,0 29.86,-12.91 29.86,-29.46l0 -58.25zm0 232.97c0,-16.01 -13.15,-29.47 -29.08,-29.47 -16.56,0 -29.86,12.92 -29.86,29.47l0 58.25c0,16.01 13.15,29.47 29.08,29.47 16.55,0 29.86,-12.92 29.86,-29.47l0 -58.25zm0 232.98c0,-16.02 -13.15,-29.47 -29.08,-29.47 -16.56,0 -29.86,12.91 -29.86,29.47l0 58.24c0,16.01 13.15,29.47 29.08,29.47 16.55,0 29.86,-12.92 29.86,-29.47l0 -58.24zm0 232.97c0,-16.01 -13.15,-29.47 -29.08,-29.47 -16.56,0 -29.86,12.91 -29.86,29.47l0 58.24c0,16.01 13.15,29.47 29.08,29.47 16.55,0 29.86,-12.92 29.86,-29.47l0 -58.24zm0 232.97c0,-16.01 -13.15,-29.47 -29.08,-29.47 -16.56,0 -29.86,12.92 -29.86,29.47l0 58.24c0,16.01 13.15,29.47 29.08,29.47 16.55,0 29.86,-12.92 29.86,-29.47l0 -58.24zm0 232.97c0,-16.01 -13.15,-29.47 -29.08,-29.47 -16.56,0 -29.86,12.92 -29.86,29.47l0 58.24c0,16.01 13.15,29.47 29.08,29.47 16.55,0 29.86,-12.92 29.86,-29.47l0 -58.24zm0 232.97c0,-16.01 -13.15,-29.47 -29.08,-29.47 -16.56,0 -29.86,12.92 -29.86,29.47l0 58.24c0,16.01 13.15,29.47 29.08,29.47 16.55,0 29.86,-12.91 29.86,-29.47l0 -58.24zm0 232.97c0,-16.01 -13.15,-29.47 -29.08,-29.47 -16.56,0 -29.86,12.92 -29.86,29.47l0 58.25c0,16.01 13.15,29.46 29.08,29.46 16.55,0 29.86,-12.91 29.86,-29.46l0 -58.25zm0 232.97c0,-16.01 -13.15,-29.47 -29.08,-29.47 -16.56,0 -29.86,12.92 -29.86,29.47l0 58.25c0,16.01 13.15,29.47 29.08,29.47 16.55,0 29.86,-12.92 29.86,-29.47l0 -58.25zm0 232.98c0,-16.02 -13.15,-29.47 -29.08,-29.47 -16.56,0 -29.86,12.91 -29.86,29.47l0 29.47c0,16.01 13.15,29.46 29.08,29.46 16.55,0 29.86,-12.91 29.86,-29.46l0 -29.47zm2204.87 -3789.5c33.42,-16.71 4.88,-68.3 -29.54,-51.05l-25.22 14.54c-33.41,16.71 -4.87,68.3 29.55,51.05l25.21 -14.54zm-176.66 102.02c33.42,-16.71 4.87,-68.3 -29.55,-51.05l-50.43 29.16c-33.41,16.71 -4.87,68.3 29.55,51.05l50.43 -29.16zm-201.8 116.64c33.42,-16.71 4.87,-68.3 -29.55,-51.05l-50.43 29.16c-33.41,16.71 -4.87,68.3 29.55,51.05l50.43 -29.16zm-201.8 116.56c33.42,-16.71 4.87,-68.3 -29.55,-51.05l-50.43 29.08c-33.41,16.71 -4.87,68.3 29.55,51.05l50.43 -29.08zm-201.8 116.49c33.41,-16.71 4.87,-68.3 -29.55,-51.05l-50.43 29.08c-33.41,16.71 -4.87,68.3 29.55,51.05l50.43 -29.08zm-201.72 116.48c33.41,-16.7 4.87,-68.29 -29.55,-51.05l-50.43 29.09c-33.41,16.7 -4.87,68.29 29.55,51.05l50.43 -29.09zm-201.73 116.49c33.42,-16.71 4.88,-68.3 -29.54,-51.05l-50.43 29.08c-33.42,16.71 -4.88,68.3 29.54,51.05l50.43 -29.08zm-201.72 116.48c33.42,-16.7 4.87,-68.29 -29.55,-51.04l-50.43 29.08c-33.41,16.7 -4.87,68.3 29.55,51.05l50.43 -29.09zm-201.72 116.41c33.41,-16.7 4.87,-68.3 -29.55,-51.05l-50.43 29.09c-33.41,16.7 -4.87,68.29 29.55,51.05l50.43 -29.09zm-201.72 116.41c33.41,-16.71 4.87,-68.3 -29.55,-51.05l-50.43 29.08c-33.42,16.71 -4.87,68.3 29.55,51.05l50.43 -29.08zm-201.73 116.41c33.42,-16.71 4.88,-68.3 -29.54,-51.05l-50.43 29.08c-33.42,16.71 -4.88,68.3 29.54,51.05l50.43 -29.08zm-433.38 29.01c38.6,19.25 60.26,-35.66 29.4,-51.05l-50.44 -29.16c-38.59,-19.26 -60.25,35.65 -29.39,51.05l50.43 29.16zm-201.8 -116.65c38.6,19.26 60.26,-35.65 29.4,-51.04l-50.44 -29.16c-38.59,-19.26 -60.25,35.65 -29.39,51.04l50.43 29.16zm-201.8 -116.56c38.6,19.26 60.26,-35.66 29.39,-51.05l-50.43 -29.08c-38.59,-19.26 -60.25,35.66 -29.39,51.05l50.43 29.08zm-201.8 -116.48c38.6,19.26 60.26,-35.66 29.39,-51.05l-50.43 -29.09c-38.59,-19.26 -60.25,35.66 -29.39,51.05l50.43 29.09zm-201.72 -116.49c38.6,19.26 60.25,-35.66 29.39,-51.05l-50.43 -29.08c-38.6,-19.26 -60.25,35.66 -29.39,51.05l50.43 29.08zm-201.72 -116.49c38.59,19.26 60.25,-35.65 29.39,-51.05l-50.43 -29.08c-38.6,-19.26 -60.26,35.66 -29.39,51.05l50.43 29.08zm-201.73 -116.4c38.6,19.26 60.26,-35.66 29.4,-51.05l-50.44 -29.09c-38.59,-19.26 -60.25,35.66 -29.39,51.05l50.43 29.09zm-201.72 -116.41c38.6,19.26 60.25,-35.66 29.39,-51.05l-50.43 -29.08c-38.59,-19.26 -60.25,35.65 -29.39,51.04l50.43 29.09zm-201.72 -116.41c38.59,19.26 60.25,-35.66 29.39,-51.05l-50.43 -29.08c-38.6,-19.26 -60.26,35.65 -29.39,51.05l50.43 29.08zm-201.73 -116.41c38.6,19.26 60.26,-35.66 29.4,-51.05l-50.43 -29.08c-38.6,-19.26 -60.26,35.66 -29.4,51.05l50.43 29.08z"/>
  </g>
 </g>
</svg>
