<?xml version="1.0" encoding="UTF-8"?>
<!DOCTYPE svg PUBLIC "-//W3C//DTD SVG 1.1//EN" "http://www.w3.org/Graphics/SVG/1.1/DTD/svg11.dtd">
<!-- Creator: CorelDRAW 2020 (64-Bit) -->
<svg xmlns="http://www.w3.org/2000/svg" xml:space="preserve" width="15472px" height="5433px" version="1.1" style="shape-rendering:geometricPrecision; text-rendering:geometricPrecision; image-rendering:optimizeQuality; fill-rule:evenodd; clip-rule:evenodd"
viewBox="0 0 15472 5432.91"
 xmlns:xlink="http://www.w3.org/1999/xlink"
 xmlns:xodm="http://www.corel.com/coreldraw/odm/2003">
 <defs>
  <style type="text/css">
   <![CDATA[
    .str0 {stroke:#FFED00;stroke-width:66.66;stroke-miterlimit:22.9256}
    .fil4 {fill:none}
    .fil0 {fill:#FFED00}
    .fil8 {fill:#E07C1C}
    .fil2 {fill:#D13223}
    .fil6 {fill:#B7DDD3}
    .fil5 {fill:#347330}
    .fil7 {fill:#1F1B20}
    .fil3 {fill:#FEFEFE;fill-rule:nonzero}
    .fil1 {fill:#1F1B20;fill-rule:nonzero}
   ]]>
  </style>
 </defs>
 <g id="Слой_x0020_1">
  <metadata id="CorelCorpID_0Corel-Layer"/>
  <polygon class="fil0" points="23.22,14.46 15495.22,14.46 15495.22,5447.38 23.22,5447.38 "/>
  <path class="fil1" d="M1464.23 2150.82c-267.22,0 -487.93,-88.79 -662.14,-266.39 -174.22,-177.59 -261.32,-396.61 -261.32,-657.08 0,-262.16 87.1,-481.6 261.32,-658.35 174.21,-176.74 394.92,-265.11 662.14,-265.11 160.69,0 309.1,37.63 445.25,112.89 136.15,75.27 242.28,177.17 318.38,305.7l-301.89 175.07c-43.97,-79.49 -106.55,-141.65 -187.74,-186.48 -81.18,-44.81 -172.51,-67.24 -274,-67.24 -172.5,0 -311.62,54.14 -417.33,162.38 -105.71,108.25 -158.56,248.64 -158.56,421.14 0,170.83 52.85,310.36 158.56,418.61 105.71,108.23 244.83,162.37 417.33,162.37 101.49,0 193.24,-22.42 275.28,-67.23 82.02,-44.83 144.18,-106.13 186.46,-183.94l301.89 175.05c-76.1,128.55 -181.8,230.45 -317.11,305.71 -135.32,75.27 -284.15,112.9 -446.52,112.9zm2367.02 -35.52l-403.39 0 -634.24 -831.71 0 831.71 -350.11 0 0 -1775.89 350.11 0 0 782.65 608.89 -782.65 403.37 0 -657.09 862.56 682.46 913.33zm1103.6 -1775.89l350.1 0 -533.61 1287.94c-142.07,343.77 -375.47,506.12 -699.37,487.95l0 -327.27c94.72,8.45 171.26,-4.65 229.61,-39.33 58.35,-34.66 106.97,-90.91 145.86,-168.71l-580.96 -1240.58 350.11 0 389.43 855.38 348.83 -855.38zm1867.21 0l0 1775.89 -350.09 0 0 -1441.02 -626.64 0 0 1441.02 -350.11 0 0 -1775.89 1326.84 0zm1717.56 1775.89l-403.39 0 -634.24 -831.71 0 831.71 -350.11 0 0 -1775.89 350.11 0 0 782.65 608.89 -782.65 403.37 0 -657.09 862.56 682.46 913.33zm1385.62 0l-112.89 -319.67 -729.81 0 -106.55 319.67 -378.02 0 621.56 -1775.89 433.82 0 626.66 1775.89 -354.77 0zm-728.53 -646.93l499.78 0 -256.24 -725.59 -243.54 725.59z"/>
  <path class="fil2" d="M11356.01 242.66l2585.4 0c569.94,0 1036.26,466.32 1036.26,1036.25l0 0c0,569.96 -466.32,1036.27 -1036.26,1036.27l-2585.4 0c-569.94,0 -1036.26,-466.31 -1036.26,-1036.27l0 0c0,-569.93 466.32,-1036.25 1036.26,-1036.25z"/>
  <path class="fil3" d="M11018.38 1175.22c0,22.96 15.2,41.61 45.62,55.95 30.41,14.35 67.42,26.98 111.04,37.88 43.61,10.9 87.22,24.68 130.84,41.31 43.62,16.65 80.63,44.48 111.04,83.51 30.42,39.02 45.62,87.79 45.62,146.33 0,88.37 -32.99,156.37 -98.99,204.01 -65.99,47.63 -148.34,71.44 -247.05,71.44 -176.74,0 -297.26,-68.28 -361.53,-204.87l192.82 -108.46c25.25,74.61 81.49,111.9 168.71,111.9 79.19,0 118.8,-24.68 118.8,-74.02 0,-22.96 -15.22,-41.61 -45.63,-55.95 -30.42,-14.35 -67.43,-27.27 -111.04,-38.74 -43.62,-11.48 -87.23,-25.82 -130.84,-43.04 -43.61,-17.22 -80.63,-44.47 -111.04,-81.78 -30.42,-37.29 -45.63,-84.06 -45.63,-140.3 0,-84.94 31.28,-151.79 93.83,-200.56 62.55,-48.79 140.31,-73.18 233.28,-73.18 70,0 133.7,15.79 191.09,47.35 57.38,31.56 102.72,76.61 136,135.14l-189.37 103.29c-27.54,-58.52 -73.45,-87.79 -137.72,-87.79 -28.69,0 -52.51,6.3 -71.45,18.93 -18.94,12.63 -28.4,29.84 -28.4,51.65z"/>
  <path class="fil3" d="M12084.03 906.65c94.12,0 171.88,31.57 233.28,94.69 61.41,63.12 92.11,150.35 92.11,261.68l0 528.53 -222.09 0 0 -500.98c0,-57.38 -15.49,-101.29 -46.49,-131.7 -30.97,-30.42 -72.3,-45.63 -123.94,-45.63 -57.38,0 -103.3,17.79 -137.73,53.37 -34.44,35.58 -51.64,88.95 -51.64,160.11l0 464.83 -222.1 0 0 -1369.57 222.1 0 0 605.18c53.94,-80.34 139.44,-120.51 256.5,-120.51z"/>
  <path class="fil3" d="M13332.19 1683.95c-88.38,87.8 -196.27,131.7 -323.67,131.7 -127.4,0 -235,-43.9 -322.79,-131.7 -87.8,-87.81 -131.7,-195.4 -131.7,-322.8 0,-127.39 43.9,-234.99 131.7,-322.8 87.79,-87.79 195.39,-131.7 322.79,-131.7 127.4,0 235.29,43.91 323.67,131.7 88.37,87.81 132.56,195.41 132.56,322.8 0,127.4 -44.19,234.99 -132.56,322.8zm-489.79 -152.36c44.18,44.76 99.56,67.14 166.12,67.14 66.58,0 122.23,-22.38 167,-67.14 44.75,-44.76 67.14,-101.57 67.14,-170.44 0,-68.86 -22.39,-125.68 -67.14,-170.43 -44.77,-44.77 -100.42,-67.15 -167,-67.15 -66.56,0 -121.94,22.38 -166.12,67.15 -44.2,44.75 -66.29,101.57 -66.29,170.43 0,68.87 22.09,125.68 66.29,170.44z"/>
  <path class="fil3" d="M14122.39 906.65c115.91,0 214.91,43.91 296.97,131.7 82.06,87.81 123.09,195.41 123.09,322.8 0,127.4 -41.03,234.99 -123.09,322.8 -82.06,87.8 -181.06,131.7 -296.97,131.7 -120.51,0 -213.48,-41.89 -278.9,-125.67l0 445.88 -222.09 0 0 -1205.1 222.09 0 0 101.57c65.42,-83.78 158.39,-125.68 278.9,-125.68zm-211.77 629.24c44.77,45.34 101.59,68 170.45,68 68.85,0 125.95,-22.66 171.29,-68 45.34,-45.33 68,-103.58 68,-174.74 0,-71.15 -22.66,-129.41 -68,-174.73 -45.34,-45.34 -102.44,-68 -171.29,-68 -68.86,0 -125.68,22.66 -170.45,68 -44.75,45.32 -67.13,103.58 -67.13,174.73 0,71.16 22.38,129.41 67.13,174.74z"/>
  <path class="fil0" d="M906.57 2978.73l1642.5 0c362.08,0 658.33,391.2 658.33,869.32l0 0c0,478.14 -296.25,869.34 -658.33,869.34l-1642.5 0c-362.08,0 -658.33,-391.2 -658.33,-869.34l0 0c0,-478.12 296.25,-869.32 658.33,-869.32z"/>
  <line class="fil4 str0" x1="3176.67" y1="3848.05" x2="8740.48" y2= "3848.05" />
  <path class="fil2" d="M12037.75 4397.4l172.43 185.6c7.43,8 9.89,18.5 6.78,28.96 -3.11,10.46 -10.91,17.92 -21.49,20.56l-857.12 107.28c-67.34,0.58 -94.75,-22.99 -91.19,-91.95l170.9 -852.1c3.4,-10.37 11.41,-17.6 22.07,-19.94 10.66,-2.33 20.96,0.9 28.39,8.89l172.65 185.78 538.17 -500.06c12.1,-11.25 31.14,-10.55 42.38,1.56l355.78 382.93c11.25,12.1 10.55,31.14 -1.55,42.38l-538.2 500.11z"/>
  <path class="fil5" d="M13142.24 3958.68c191.19,-887.37 314.74,-751.09 -581.64,-625.8l139.79 150.44c11.24,12.09 10.54,31.13 -1.56,42.38l-139.8 129.91c-12.09,11.25 -31.13,10.55 -42.38,-1.54l-26.89 -28.93c-11.24,-12.1 -10.54,-31.15 1.56,-42.39l89.06 -82.77 -172.45 -185.58c-7.43,-7.99 -9.89,-18.49 -6.78,-28.95 3.11,-10.47 10.91,-17.93 21.49,-20.56l888.54 -147.73c83.91,4.98 114.08,23.91 100.92,111.03l-212.04 873.48c-3.41,10.36 -11.42,17.59 -22.08,19.93 -10.66,2.33 -20.96,-0.89 -28.38,-8.89l-172.66 -185.79 -538.12 500.01c-6.06,5.64 -13.28,8.32 -21.55,8 -8.26,-0.31 -15.26,-3.52 -20.88,-9.6l-26.68 -28.84c-11.19,-12.11 -10.48,-31.1 1.61,-42.33l588.94 -547.25c12.09,-11.25 31.13,-10.55 42.38,1.55l139.6 150.22z"/>
  <polygon class="fil5" points="13634.77,4270.02 14761.34,3013.21 15401.73,3586.95 14275.15,4843.76 "/>
  <polygon class="fil6" points="13772.56,4263.9 14266.19,4706.15 15263.94,3593.07 14770.31,3150.82 "/>
  <path class="fil5" d="M15202.05 3537.63c30.59,-34.13 83.63,-36.48 118.48,-5.26 34.84,31.22 38.3,84.19 7.71,118.31 -30.59,34.12 -83.63,36.48 -118.48,5.26 -34.84,-31.22 -38.29,-84.19 -7.71,-118.31z"/>
  <path class="fil5" d="M14707.22 3094.29c30.59,-34.12 83.63,-36.48 118.48,-5.26 34.84,31.22 38.29,84.19 7.71,118.31 -30.59,34.13 -83.64,36.48 -118.48,5.26 -34.84,-31.22 -38.3,-84.19 -7.71,-118.31z"/>
  <path class="fil5" d="M13709.47 4207.37c30.59,-34.12 83.63,-36.47 118.48,-5.26 34.84,31.22 38.29,84.19 7.71,118.32 -30.59,34.12 -83.64,36.47 -118.48,5.25 -34.84,-31.21 -38.3,-84.18 -7.71,-118.31z"/>
  <path class="fil5" d="M14204.3 4650.71c30.59,-34.12 83.63,-36.48 118.48,-5.26 34.84,31.22 38.29,84.19 7.71,118.31 -30.59,34.13 -83.63,36.48 -118.48,5.26 -34.84,-31.22 -38.29,-84.19 -7.71,-118.31z"/>
  <path class="fil5" d="M14335.85 3765.06c88.43,-98.65 241.78,-105.46 342.52,-15.2 100.73,90.26 110.71,243.39 22.29,342.04 -88.44,98.66 -241.79,105.46 -342.52,15.21 -100.75,-90.26 -110.72,-243.4 -22.29,-342.05z"/>
  <path class="fil5" d="M14131.47 4233.06c30.59,-34.12 83.63,-36.48 118.47,-5.26 34.85,31.22 38.3,84.19 7.71,118.31 -30.58,34.13 -83.63,36.48 -118.47,5.26 -34.85,-31.21 -38.3,-84.19 -7.71,-118.31z"/>
  <path class="fil5" d="M14778.85 3510.85c30.58,-34.12 83.63,-36.48 118.47,-5.26 34.85,31.22 38.3,84.19 7.71,118.31 -30.58,34.13 -83.63,36.48 -118.47,5.26 -34.85,-31.22 -38.3,-84.19 -7.71,-118.31z"/>
  <polygon class="fil7" points="10001.16,3082.76 10733.58,3505.63 10733.58,4351.34 10001.16,4774.21 9268.74,4351.34 9268.74,3505.63 "/>
  <polygon class="fil8" points="10001.16,3114.86 10356.21,3319.84 10711.25,3524.83 10711.25,3934.8 10711.25,4344.77 10356.21,4549.76 10001.16,4754.75 9646.11,4549.76 9291.06,4344.77 9291.06,3934.8 9291.06,3524.83 9646.11,3319.84 "/>
  <path class="fil7" d="M10112.23 4205.19c34.4,-19.86 68.8,-39.72 103.2,-59.58 0,34.4 0,68.8 0,103.2 -34.4,19.86 -68.8,39.72 -103.2,59.58 0,-34.4 0,-68.8 0,-103.2zm0 -133.61l103.2 -59.58 0 103.2 -103.2 59.58 0 -103.2zm135.36 -37.77l376.9 -217.6 0 22.43 -376.9 217.61 0 -22.44zm-135.36 304.99c34.4,-19.86 68.8,-39.72 103.2,-59.58 0,34.4 0,68.8 0,103.2 -34.4,19.86 -68.8,39.72 -103.2,59.58 0,-34.4 0,-68.8 0,-103.2zm0 133.61l103.2 -59.58 0 103.2 -103.2 59.58 0 -103.2zm135.36 -37.77l376.9 -217.6 0 22.43 -376.9 217.61 0 -22.44zm0 -133.61c125.63,-72.53 251.27,-145.07 376.9,-217.6 0,7.48 0,14.96 0,22.43 -125.63,72.54 -251.27,145.07 -376.9,217.61 0,-7.48 0,-14.96 0,-22.44zm0 -133.61c125.63,-72.53 251.27,-145.07 376.9,-217.6 0,7.48 0,14.95 0,22.43 -125.63,72.54 -251.27,145.07 -376.9,217.61 0,-7.48 0,-14.96 0,-22.44z"/>
  <path class="fil1" d="M9309.58 3534.3c-12.11,-6.04 -18.9,11.19 -9.22,16.01l7.98 4.61c12.1,6.04 18.9,-11.18 9.22,-16.01l-7.98 -4.61zm682.3 415.27l0 3.78c0,5.02 4.12,9.24 9.12,9.24 5.19,0 9.36,-4.05 9.36,-9.24l0 -3.78 3.38 -1.94c10.48,-5.24 1.52,-21.43 -9.27,-16.01l-3.35 1.94 -3.32 -1.92c-12.11,-6.04 -18.9,11.18 -9.22,16.01l3.3 1.92zm18.48 58.58c0,-5.02 -4.12,-9.24 -9.12,-9.24 -5.19,0 -9.36,4.05 -9.36,9.24l0 18.27c0,5.02 4.12,9.24 9.12,9.24 5.19,0 9.36,-4.05 9.36,-9.24l0 -18.27zm0 73.07c0,-5.02 -4.12,-9.24 -9.12,-9.24 -5.19,0 -9.36,4.05 -9.36,9.24l0 18.27c0,5.02 4.12,9.24 9.12,9.24 5.19,0 9.36,-4.05 9.36,-9.24l0 -18.27zm0 73.07c0,-5.02 -4.12,-9.25 -9.12,-9.25 -5.19,0 -9.36,4.05 -9.36,9.25l0 18.26c0,5.03 4.12,9.25 9.12,9.25 5.19,0 9.36,-4.05 9.36,-9.25l0 -18.26zm0 73.06c0,-5.02 -4.12,-9.24 -9.12,-9.24 -5.19,0 -9.36,4.05 -9.36,9.24l0 18.27c0,5.02 4.12,9.24 9.12,9.24 5.19,0 9.36,-4.05 9.36,-9.24l0 -18.27zm0 73.07c0,-5.02 -4.12,-9.24 -9.12,-9.24 -5.19,0 -9.36,4.05 -9.36,9.24l0 18.27c0,5.02 4.12,9.24 9.12,9.24 5.19,0 9.36,-4.05 9.36,-9.24l0 -18.27zm0 73.07c0,-5.02 -4.12,-9.24 -9.12,-9.24 -5.19,0 -9.36,4.05 -9.36,9.24l0 18.27c0,5.02 4.12,9.24 9.12,9.24 5.19,0 9.36,-4.05 9.36,-9.24l0 -18.27zm0 73.07c0,-5.02 -4.12,-9.25 -9.12,-9.25 -5.19,0 -9.36,4.06 -9.36,9.25l0 18.26c0,5.03 4.12,9.25 9.12,9.25 5.19,0 9.36,-4.05 9.36,-9.25l0 -18.26zm0 73.06c0,-5.02 -4.12,-9.24 -9.12,-9.24 -5.19,0 -9.36,4.05 -9.36,9.24l0 18.27c0,5.02 4.12,9.24 9.12,9.24 5.19,0 9.36,-4.05 9.36,-9.24l0 -18.27zm0 73.07c0,-5.02 -4.12,-9.24 -9.12,-9.24 -5.19,0 -9.36,4.05 -9.36,9.24l0 18.27c0,5.02 4.12,9.24 9.12,9.24 5.19,0 9.36,-4.05 9.36,-9.24l0 -18.27zm0 73.07c0,-5.02 -4.12,-9.24 -9.12,-9.24 -5.19,0 -9.36,4.05 -9.36,9.24l0 18.27c0,5.02 4.12,9.24 9.12,9.24 5.19,0 9.36,-4.05 9.36,-9.24l0 -18.27zm0 73.07c0,-5.02 -4.12,-9.24 -9.12,-9.24 -5.19,0 -9.36,4.05 -9.36,9.24l0 9.24c0,5.02 4.12,9.24 9.12,9.24 5.19,0 9.36,-4.05 9.36,-9.24l0 -9.24zm691.53 -1188.52c10.48,-5.24 1.52,-21.42 -9.27,-16.01l-7.91 4.56c-10.48,5.24 -1.53,21.42 9.27,16.02l7.91 -4.57zm-55.41 32c10.48,-5.24 1.53,-21.42 -9.27,-16.01l-15.82 9.15c-10.47,5.24 -1.52,21.42 9.27,16.01l15.82 -9.15zm-63.29 36.58c10.48,-5.24 1.53,-21.42 -9.27,-16.01l-15.82 9.15c-10.48,5.24 -1.52,21.42 9.27,16.01l15.82 -9.15zm-63.29 36.56c10.48,-5.24 1.52,-21.42 -9.27,-16.01l-15.82 9.12c-10.48,5.24 -1.53,21.42 9.27,16.01l15.82 -9.12zm-63.29 36.54c10.47,-5.24 1.52,-21.42 -9.27,-16.01l-15.82 9.12c-10.48,5.24 -1.53,21.42 9.27,16.01l15.82 -9.12zm-63.27 36.53c10.48,-5.24 1.53,-21.42 -9.27,-16.01l-15.82 9.12c-10.48,5.24 -1.52,21.42 9.27,16.01l15.82 -9.12zm-63.27 36.53c10.48,-5.24 1.53,-21.42 -9.27,-16.01l-15.81 9.12c-10.48,5.24 -1.53,21.42 9.26,16.02l15.82 -9.13zm-63.27 36.54c10.48,-5.24 1.53,-21.42 -9.26,-16.01l-15.82 9.12c-10.48,5.24 -1.53,21.42 9.27,16.01l15.81 -9.12zm-63.26 36.51c10.48,-5.24 1.52,-21.42 -9.27,-16.01l-15.82 9.12c-10.48,5.24 -1.53,21.42 9.27,16.01l15.82 -9.12zm-63.27 36.51c10.48,-5.24 1.53,-21.42 -9.27,-16.01l-15.81 9.12c-10.48,5.24 -1.53,21.42 9.26,16.01l15.82 -9.12zm-63.27 36.51c10.48,-5.24 1.53,-21.42 -9.26,-16.02l-15.82 9.13c-10.48,5.24 -1.53,21.42 9.27,16.01l15.81 -9.12zm-135.92 9.09c12.11,6.04 18.9,-11.18 9.22,-16.01l-15.82 -9.14c-12.1,-6.04 -18.9,11.18 -9.22,16.01l15.82 9.14zm-63.29 -36.58c12.11,6.04 18.9,-11.18 9.22,-16.01l-15.82 -9.15c-12.1,-6.04 -18.9,11.19 -9.22,16.02l15.82 9.14zm-63.29 -36.56c12.1,6.04 18.9,-11.18 9.22,-16.01l-15.82 -9.12c-12.11,-6.04 -18.9,11.18 -9.22,16.01l15.82 9.12zm-63.29 -36.53c12.1,6.04 18.89,-11.18 9.22,-16.01l-15.82 -9.12c-12.11,-6.04 -18.9,11.18 -9.22,16.01l15.82 9.12zm-63.27 -36.53c12.11,6.04 18.9,-11.19 9.22,-16.02l-15.82 -9.12c-12.1,-6.04 -18.9,11.19 -9.22,16.01l15.82 9.13zm-63.27 -36.54c12.11,6.04 18.9,-11.18 9.22,-16.01l-15.82 -9.12c-12.1,-6.04 -18.89,11.18 -9.21,16.01l15.81 9.12zm-63.26 -36.51c12.1,6.04 18.89,-11.18 9.21,-16.01l-15.81 -9.12c-12.11,-6.04 -18.9,11.18 -9.22,16.01l15.82 9.12zm-63.27 -36.51c12.1,6.04 18.9,-11.18 9.22,-16.01l-15.82 -9.12c-12.1,-6.04 -18.9,11.18 -9.22,16.01l15.82 9.12zm-63.27 -36.51c12.11,6.04 18.9,-11.18 9.22,-16.01l-15.82 -9.12c-12.1,-6.04 -18.89,11.18 -9.21,16.01l15.81 9.12zm-63.26 -36.51c12.1,6.04 18.89,-11.18 9.21,-16.01l-15.81 -9.12c-12.11,-6.04 -18.9,11.18 -9.22,16.01l15.82 9.12z"/>
 </g>
</svg>
