<svg width="50" height="50" viewBox="0 0 50 50" fill="none" xmlns="http://www.w3.org/2000/svg" alt="PICTOGRAM_CHANNEL_PHONE" class="Pictograms__image"><circle cx="25" cy="25" r="25" fill="#FFB038"></circle><path d="M18.8536 22.3598C18.2412 22.9722 18.0839 23.9147 18.5321 24.6558C20.214 27.4367 22.5593 29.775 25.342 31.4632C26.0842 31.9134 27.0294 31.7573 27.6433 31.1434L29.5467 29.24C30.5554 28.2312 37 29.3169 37 31.0133V35.6667C37 36.4 36.4 37 35.6667 37C23.1467 37 13 26.8533 13 14.3333C13 13.6 13.6 13 14.3333 13H19C20.6572 13 22.0432 19.1701 20.76 20.4533L18.8536 22.3598Z" fill="white"></path></svg>