<?xml version="1.0" encoding="UTF-8"?>
<svg xmlns="http://www.w3.org/2000/svg" xmlns:xlink="http://www.w3.org/1999/xlink" width="32px" height="32px" viewBox="0 0 32 32" version="1.1">
<g id="surface1">
<path style=" stroke:none;fill-rule:nonzero;fill:rgb(0%,46.666667%,100%);fill-opacity:1;" d="M 0 15.359375 C 0 8.117188 0 4.496094 2.25 2.25 C 4.496094 0.00390625 8.117188 0 15.359375 0 L 16.640625 0 C 23.882812 0 27.503906 0 29.75 2.25 C 31.996094 4.496094 32 8.117188 32 15.359375 L 32 16.640625 C 32 23.882812 32 27.503906 29.75 29.75 C 27.503906 31.996094 23.882812 32 16.640625 32 L 15.359375 32 C 8.117188 32 4.496094 32 2.25 29.75 C 0.00390625 27.503906 0 23.882812 0 16.640625 Z M 0 15.359375 "/>
<path style=" stroke:none;fill-rule:nonzero;fill:rgb(100%,100%,100%);fill-opacity:1;" d="M 16.667969 22.472656 C 9.84375 22.472656 5.953125 17.796875 5.789062 10.007812 L 9.214844 10.007812 C 9.324219 15.726562 11.847656 18.144531 13.84375 18.640625 L 13.84375 10.007812 L 17.0625 10.007812 L 17.0625 14.9375 C 19.03125 14.726562 21.105469 12.480469 21.800781 10.007812 L 25.019531 10.007812 C 24.484375 13.054688 22.238281 15.300781 20.640625 16.222656 C 22.238281 16.96875 24.796875 18.929688 25.769531 22.472656 L 22.21875 22.472656 C 21.460938 20.09375 19.5625 18.261719 17.054688 18.007812 L 17.054688 22.472656 Z M 16.667969 22.472656 "/>
</g>
</svg>
