<?xml version="1.0" encoding="UTF-8"?>
<svg xmlns="http://www.w3.org/2000/svg" xmlns:xlink="http://www.w3.org/1999/xlink" width="32px" height="32px" viewBox="0 0 32 32" version="1.1">
<g id="surface1">
<path style=" stroke:none;fill-rule:nonzero;fill:rgb(93.333333%,50.980392%,3.137255%);fill-opacity:1;" d="M 0 15.359375 C 0 8.117188 0 4.496094 2.25 2.25 C 4.496094 0.00390625 8.117188 0 15.359375 0 L 16.640625 0 C 23.882812 0 27.503906 0 29.75 2.25 C 31.996094 4.496094 32 8.117188 32 15.359375 L 32 16.640625 C 32 23.882812 32 27.503906 29.75 29.75 C 27.503906 31.996094 23.882812 32 16.640625 32 L 15.359375 32 C 8.117188 32 4.496094 32 2.25 29.75 C 0.00390625 27.503906 0 23.882812 0 16.640625 Z M 0 15.359375 "/>
<path style=" stroke:none;fill-rule:nonzero;fill:rgb(100%,100%,100%);fill-opacity:1;" d="M 15.992188 16.53125 C 18.6875 16.53125 20.871094 14.347656 20.871094 11.652344 C 20.871094 8.957031 18.6875 6.773438 15.992188 6.773438 C 13.296875 6.773438 11.113281 8.957031 11.113281 11.652344 C 11.117188 14.347656 13.300781 16.527344 15.992188 16.53125 M 15.992188 9.625 C 17.113281 9.625 18.019531 10.53125 18.019531 11.652344 C 18.019531 12.769531 17.113281 13.679688 15.996094 13.679688 C 14.875 13.679688 13.96875 12.769531 13.96875 11.652344 C 13.96875 10.535156 14.875 9.628906 15.992188 9.625 "/>
<path style=" stroke:none;fill-rule:nonzero;fill:rgb(100%,100%,100%);fill-opacity:1;" d="M 17.972656 20.507812 C 18.980469 20.277344 19.941406 19.878906 20.8125 19.328125 C 21.261719 19.0625 21.53125 18.574219 21.515625 18.050781 C 21.5 17.53125 21.203125 17.058594 20.742188 16.816406 C 20.277344 16.578125 19.722656 16.609375 19.285156 16.894531 C 17.273438 18.148438 14.726562 18.148438 12.714844 16.894531 C 12.042969 16.496094 11.179688 16.707031 10.765625 17.367188 C 10.347656 18.027344 10.535156 18.898438 11.1875 19.328125 C 12.058594 19.882812 13.019531 20.28125 14.027344 20.507812 L 11.292969 23.242188 C 11.023438 23.511719 10.875 23.875 10.875 24.253906 C 10.875 24.632812 11.023438 25 11.292969 25.265625 C 11.5625 25.53125 11.925781 25.683594 12.304688 25.6875 C 12.6875 25.691406 13.050781 25.539062 13.316406 25.265625 L 16.007812 22.578125 L 18.695312 25.265625 C 19.257812 25.824219 20.164062 25.828125 20.722656 25.265625 C 21.28125 24.707031 21.28125 23.800781 20.722656 23.242188 Z M 17.972656 20.507812 "/>
</g>
</svg>
