<?xml version="1.0" encoding="UTF-8"?>
<svg xmlns="http://www.w3.org/2000/svg" xmlns:xlink="http://www.w3.org/1999/xlink" width="32px" height="32px" viewBox="0 0 32 32" version="1.1">
<g id="surface1">
<path style=" stroke:none;fill-rule:nonzero;fill:rgb(45.098039%,37.647059%,94.901961%);fill-opacity:1;" d="M 0 15.359375 C 0 8.117188 0 4.496094 2.25 2.25 C 4.496094 0.00390625 8.117188 0 15.359375 0 L 16.640625 0 C 23.882812 0 27.503906 0 29.75 2.25 C 31.996094 4.496094 32 8.117188 32 15.359375 L 32 16.640625 C 32 23.882812 32 27.503906 29.75 29.75 C 27.503906 31.996094 23.882812 32 16.640625 32 L 15.359375 32 C 8.117188 32 4.496094 32 2.25 29.75 C 0.00390625 27.503906 0 23.882812 0 16.640625 Z M 0 15.359375 "/>
<path style=" stroke:none;fill-rule:nonzero;fill:rgb(100%,100%,100%);fill-opacity:1;" d="M 22.691406 9.28125 C 22.242188 8.863281 20.414062 7.539062 16.347656 7.523438 C 16.347656 7.523438 11.554688 7.234375 9.21875 9.375 C 7.917969 10.675781 7.460938 12.582031 7.410156 14.941406 C 7.363281 17.300781 7.300781 21.730469 11.566406 22.921875 L 11.566406 24.75 C 11.566406 24.75 11.535156 25.496094 12.023438 25.644531 C 12.621094 25.828125 12.960938 25.265625 13.523438 24.65625 C 13.835938 24.324219 14.269531 23.835938 14.582031 23.46875 C 17.5 23.710938 19.742188 23.152344 19.996094 23.066406 C 20.589844 22.878906 23.917969 22.449219 24.460938 18.027344 C 25.019531 13.464844 24.1875 10.582031 22.691406 9.28125 Z M 23.183594 17.695312 C 22.726562 21.390625 20.023438 21.621094 19.527344 21.78125 C 18.003906 22.152344 16.429688 22.285156 14.867188 22.175781 C 14.867188 22.175781 13.023438 24.410156 12.445312 24.980469 C 12.378906 25.058594 12.28125 25.101562 12.179688 25.089844 C 12.078125 25.066406 12.054688 24.949219 12.054688 24.777344 C 12.054688 24.53125 12.070312 21.734375 12.070312 21.734375 C 8.460938 20.734375 8.671875 16.972656 8.714844 15 C 8.757812 13.023438 9.125 11.414062 10.226562 10.328125 C 12.203125 8.539062 16.273438 8.804688 16.273438 8.804688 C 19.710938 8.820312 21.359375 9.855469 21.742188 10.203125 C 23.011719 11.285156 23.65625 13.886719 23.183594 17.695312 Z M 23.183594 17.695312 "/>
<path style=" stroke:none;fill-rule:nonzero;fill:rgb(100%,100%,100%);fill-opacity:1;" d="M 18.019531 15.066406 C 17.898438 15.070312 17.796875 14.972656 17.792969 14.847656 C 17.753906 14.066406 17.386719 13.6875 16.636719 13.648438 C 16.507812 13.640625 16.410156 13.53125 16.417969 13.40625 C 16.425781 13.277344 16.53125 13.183594 16.660156 13.1875 C 17.652344 13.242188 18.203125 13.804688 18.25 14.824219 C 18.257812 14.953125 18.160156 15.058594 18.03125 15.066406 Z M 18.019531 15.066406 "/>
<path style=" stroke:none;fill-rule:nonzero;fill:rgb(100%,100%,100%);fill-opacity:1;" d="M 19.199219 15.464844 C 19.074219 15.460938 18.972656 15.355469 18.972656 15.230469 C 19.015625 14.515625 18.769531 13.8125 18.289062 13.285156 C 17.808594 12.761719 17.15625 12.476562 16.285156 12.414062 C 16.160156 12.402344 16.0625 12.292969 16.074219 12.167969 C 16.082031 12.039062 16.191406 11.945312 16.320312 11.953125 C 17.296875 12.027344 18.074219 12.367188 18.628906 12.972656 C 19.1875 13.589844 19.476562 14.40625 19.433594 15.238281 C 19.429688 15.367188 19.328125 15.464844 19.199219 15.464844 Z M 19.199219 15.464844 "/>
<path style=" stroke:none;fill-rule:nonzero;fill:rgb(100%,100%,100%);fill-opacity:1;" d="M 20.410156 15.9375 C 20.347656 15.9375 20.289062 15.914062 20.246094 15.871094 C 20.203125 15.828125 20.179688 15.769531 20.179688 15.707031 C 20.167969 14.320312 19.753906 13.214844 18.941406 12.425781 C 18.128906 11.632812 17.03125 11.199219 15.894531 11.222656 C 15.804688 11.226562 15.722656 11.1875 15.675781 11.113281 C 15.632812 11.039062 15.632812 10.945312 15.675781 10.871094 C 15.722656 10.796875 15.804688 10.753906 15.894531 10.761719 C 17.230469 10.769531 18.359375 11.222656 19.257812 12.101562 C 20.160156 12.980469 20.625 14.191406 20.636719 15.707031 C 20.636719 15.835938 20.535156 15.9375 20.40625 15.9375 Z M 20.410156 15.9375 "/>
<path style=" stroke:none;fill-rule:nonzero;fill:rgb(100%,100%,100%);fill-opacity:1;" d="M 16.695312 17.917969 C 16.878906 17.929688 17.0625 17.863281 17.191406 17.730469 L 17.53125 17.304688 C 17.773438 17.039062 18.167969 16.980469 18.476562 17.171875 C 18.773438 17.339844 19.046875 17.519531 19.316406 17.710938 C 19.589844 17.902344 20.101562 18.339844 20.101562 18.339844 C 20.355469 18.546875 20.414062 18.910156 20.238281 19.1875 C 20.050781 19.511719 19.8125 19.804688 19.535156 20.054688 C 19.332031 20.238281 19.082031 20.359375 18.816406 20.402344 C 18.78125 20.40625 18.746094 20.40625 18.710938 20.402344 C 18.609375 20.402344 18.511719 20.386719 18.414062 20.355469 L 18.40625 20.34375 C 18.046875 20.242188 17.441406 19.988281 16.4375 19.433594 C 15.855469 19.113281 15.300781 18.75 14.78125 18.339844 C 14.519531 18.132812 14.269531 17.910156 14.035156 17.675781 L 13.960938 17.601562 C 13.949219 17.59375 13.941406 17.585938 13.933594 17.578125 C 13.699219 17.34375 13.480469 17.09375 13.273438 16.832031 C 12.863281 16.3125 12.496094 15.761719 12.179688 15.179688 C 11.625 14.171875 11.371094 13.570312 11.269531 13.207031 L 11.257812 13.199219 C 11.226562 13.101562 11.210938 13.003906 11.210938 12.902344 C 11.207031 12.867188 11.207031 12.832031 11.210938 12.796875 C 11.257812 12.527344 11.375 12.277344 11.558594 12.078125 C 11.808594 11.796875 12.101562 11.558594 12.429688 11.371094 C 12.703125 11.199219 13.066406 11.253906 13.277344 11.507812 C 13.277344 11.507812 13.722656 12.035156 13.902344 12.292969 C 14.097656 12.566406 14.277344 12.847656 14.441406 13.136719 C 14.632812 13.441406 14.578125 13.839844 14.3125 14.082031 L 13.882812 14.421875 C 13.746094 14.550781 13.679688 14.734375 13.691406 14.921875 C 13.691406 14.921875 14.332031 17.3125 16.695312 17.917969 Z M 16.695312 17.917969 "/>
</g>
</svg>
