<?xml version="1.0" encoding="UTF-8"?>
<svg xmlns="http://www.w3.org/2000/svg" xmlns:xlink="http://www.w3.org/1999/xlink" width="32px" height="32px" viewBox="0 0 32 32" version="1.1">
<defs>
<radialGradient id="radial0" gradientUnits="userSpaceOnUse" cx="320" cy="222.67" fx="320" fy="222.67" r="357.43" gradientTransform="matrix(0.111145,-0.0989916,0.0564252,0.0633525,-41.68186,50.763907)">
<stop offset="0" style="stop-color:rgb(97.647059%,82.352941%,47.843137%);stop-opacity:1;"/>
<stop offset="0.05" style="stop-color:rgb(97.254902%,78.431373%,44.313725%);stop-opacity:1;"/>
<stop offset="0.14" style="stop-color:rgb(96.078431%,67.843137%,34.509804%);stop-opacity:1;"/>
<stop offset="0.25" style="stop-color:rgb(93.72549%,50.588235%,18.823529%);stop-opacity:1;"/>
<stop offset="0.26" style="stop-color:rgb(93.72549%,49.411765%,17.647059%);stop-opacity:1;"/>
<stop offset="0.36" style="stop-color:rgb(94.117647%,29.803922%,24.313725%);stop-opacity:1;"/>
<stop offset="0.38" style="stop-color:rgb(92.941176%,29.019608%,27.058824%);stop-opacity:1;"/>
<stop offset="0.49" style="stop-color:rgb(83.137255%,24.313725%,47.45098%);stop-opacity:1;"/>
<stop offset="0.55" style="stop-color:rgb(79.215686%,22.352941%,55.686275%);stop-opacity:1;"/>
<stop offset="0.7" style="stop-color:rgb(55.294118%,23.529412%,78.431373%);stop-opacity:1;"/>
<stop offset="0.9" style="stop-color:rgb(18.823529%,30.196078%,94.117647%);stop-opacity:1;"/>
</radialGradient>
</defs>
<g id="surface1">
<path style=" stroke:none;fill-rule:nonzero;fill:url(#radial0);" d="M 0 15.359375 C 0 8.117188 0 4.496094 2.25 2.25 C 4.496094 0.00390625 8.117188 0 15.359375 0 L 16.640625 0 C 23.882812 0 27.503906 0 29.75 2.25 C 31.996094 4.496094 32 8.117188 32 15.359375 L 32 16.640625 C 32 23.882812 32 27.503906 29.75 29.75 C 27.503906 31.996094 23.882812 32 16.640625 32 L 15.359375 32 C 8.117188 32 4.496094 32 2.25 29.75 C 0.00390625 27.503906 0 23.882812 0 16.640625 Z M 0 15.359375 "/>
<path style=" stroke:none;fill-rule:evenodd;fill:rgb(100%,100%,100%);fill-opacity:1;" d="M 16 7.078125 C 18.421875 7.078125 18.726562 7.085938 19.679688 7.128906 C 20.417969 7.144531 21.152344 7.285156 21.84375 7.546875 C 23.042969 8.007812 23.992188 8.957031 24.453125 10.15625 C 24.714844 10.847656 24.855469 11.582031 24.871094 12.320312 C 24.914062 13.273438 24.921875 13.578125 24.921875 16 C 24.921875 18.421875 24.914062 18.726562 24.871094 19.679688 C 24.855469 20.417969 24.714844 21.152344 24.453125 21.84375 C 23.992188 23.042969 23.042969 23.992188 21.84375 24.453125 C 21.152344 24.714844 20.417969 24.855469 19.679688 24.871094 C 18.726562 24.914062 18.421875 24.921875 16 24.921875 C 13.578125 24.921875 13.273438 24.914062 12.320312 24.871094 C 11.582031 24.855469 10.847656 24.714844 10.15625 24.453125 C 8.957031 23.992188 8.007812 23.042969 7.546875 21.84375 C 7.285156 21.152344 7.144531 20.417969 7.128906 19.679688 C 7.085938 18.726562 7.078125 18.421875 7.078125 16 C 7.078125 13.578125 7.085938 13.273438 7.128906 12.320312 C 7.144531 11.582031 7.285156 10.847656 7.546875 10.15625 C 8.007812 8.957031 8.957031 8.007812 10.15625 7.546875 C 10.847656 7.285156 11.582031 7.144531 12.320312 7.128906 C 13.273438 7.085938 13.578125 7.078125 16 7.078125 Z M 19.605469 8.738281 C 18.664062 8.695312 18.382812 8.683594 16 8.683594 C 13.617188 8.683594 13.335938 8.695312 12.394531 8.738281 C 11.828125 8.742188 11.269531 8.847656 10.738281 9.042969 C 9.960938 9.34375 9.34375 9.960938 9.042969 10.738281 C 8.847656 11.269531 8.742188 11.828125 8.738281 12.394531 C 8.695312 13.335938 8.683594 13.617188 8.683594 16 C 8.683594 18.382812 8.695312 18.664062 8.738281 19.605469 C 8.742188 20.171875 8.847656 20.730469 9.042969 21.261719 C 9.34375 22.039062 9.960938 22.65625 10.738281 22.957031 C 11.269531 23.152344 11.828125 23.257812 12.394531 23.261719 C 13.335938 23.304688 13.617188 23.316406 16 23.316406 C 18.382812 23.316406 18.664062 23.304688 19.605469 23.261719 C 20.171875 23.257812 20.730469 23.152344 21.261719 22.957031 C 22.039062 22.65625 22.65625 22.039062 22.957031 21.261719 C 23.152344 20.730469 23.257812 20.171875 23.261719 19.605469 C 23.304688 18.664062 23.316406 18.382812 23.316406 16 C 23.316406 13.617188 23.304688 13.335938 23.261719 12.394531 C 23.257812 11.828125 23.152344 11.269531 22.957031 10.738281 C 22.65625 9.960938 22.039062 9.34375 21.261719 9.042969 C 20.730469 8.847656 20.171875 8.742188 19.605469 8.738281 Z M 16 18.972656 C 17.644531 18.972656 18.976562 17.640625 18.976562 15.996094 C 18.976562 14.351562 17.644531 13.019531 16 13.019531 C 14.355469 13.019531 13.023438 14.351562 13.023438 15.996094 C 13.023438 17.640625 14.355469 18.972656 16 18.972656 Z M 16 11.417969 C 18.53125 11.417969 20.582031 13.46875 20.582031 16 C 20.582031 18.53125 18.53125 20.582031 16 20.582031 C 13.46875 20.582031 11.417969 18.53125 11.417969 16 C 11.417969 13.46875 13.46875 11.417969 16 11.417969 Z M 21.835938 11.238281 C 21.835938 11.828125 21.355469 12.308594 20.761719 12.308594 C 20.171875 12.308594 19.691406 11.828125 19.691406 11.238281 C 19.691406 10.644531 20.171875 10.164062 20.761719 10.164062 C 21.355469 10.164062 21.835938 10.644531 21.835938 11.238281 Z M 21.835938 11.238281 "/>
</g>
</svg>
